<svg version="1.2" xmlns="http://www.w3.org/2000/svg" viewBox="0 0 2144 1641" width="2144" height="1641"><style>.a{fill:#d8deea}.b{opacity:.4;fill:#cecddb}.c{fill:#228e9b}.d{fill:#fff}.e{fill:#5f5e7d}.f{fill:#c4c3d1}.g{fill:#183e41}.h{fill:#e84949}.i{fill:#ec6261}.j{fill:#123233}.k{fill:#060633}.l{fill:#6f4975}.m{fill:#40c1a3}.n{fill:#020202}.o{fill:#e9f2fb}.p{fill:#080435}.q{fill:#72728c}.r{fill:#b8d5dc}</style><g style="opacity:.2"><path class="a" d="m1980.2 711.8c0 19.4-15.7 35-35 35-19.4 0-35-15.6-35-35 0-19.3 15.6-35 35-35 19.3 0 35 15.7 35 35z"/><path class="a" d="m2078.2 974.8c0 8.3-6.8 15-15 15-8.3 0-15-6.7-15-15 0-8.3 6.7-15 15-15 8.2 0 15 6.7 15 15z"/><path class="a" d="m166.2 83.8c0 45.9-37.2 83-83 83-45.9 0-83-37.1-83-83 0-45.8 37.1-83 83-83 45.8 0 83 37.2 83 83z"/><path class="a" d="m2047.2 1268.8c0 45.9-37.2 83-83 83-45.9 0-83-37.1-83-83 0-45.8 37.1-83 83-83 45.8 0 83 37.2 83 83z"/></g><path class="b" d="m790 120.9c-131.4-0.9-73.9-60.7-53.3-60.1 20.7 0.7 22.6 22.1 37.7 12 15.1-10.1 28.9-31.5 49.7-15.1 20.8 16.4-13.2 35.2 18.9 37.8 32.1 2.5 47.8-22.7 59.2-1.9 11.3 20.7 18.8 8.2 35.8 9.4 17 1.3 15.8 17.9-5.6 17.9-21.4 0-137 0-142.4 0z"/><path class="b" d="m1960.7 552.3c-150.6-1.1-84.7-69.6-61-68.9 23.6 0.7 25.8 25.3 43.1 13.7 17.3-11.5 33.2-36.1 57-17.3 23.8 18.8-15.1 40.4 21.7 43.3 36.8 2.9 54.8-26 67.8-2.2 13 23.9 21.7 9.4 41.2 10.9 19.5 1.4 18 20.5-6.5 20.5-24.6 0-157 0-163.3 0z"/><path class="b" d="m240.1 386.8c-215.8-1.5-121.3-99.7-87.4-98.7 33.9 1.1 37 36.2 61.8 19.7 24.8-16.6 47.6-51.7 81.7-24.8 34.2 26.9-21.7 57.9 31.1 62 52.7 4.2 78.6-37.2 97.2-3.1 18.6 34.2 31 13.5 59 15.5 27.9 2.1 25.8 29.4-9.3 29.4-35.2 0-225.1 0.1-234.1 0z"/><path class="b" d="m1677.1 149.8c-215.8-1.5-121.3-99.7-87.4-98.7 33.9 1.1 37 36.2 61.8 19.7 24.8-16.6 47.6-51.7 81.7-24.8 34.2 26.9-21.7 57.9 31.1 62 52.7 4.2 78.6-37.2 97.2-3.1 18.6 34.2 31 13.5 59 15.5 27.9 2.1 25.8 29.4-9.3 29.4-35.2 0-225.1 0.1-234.1 0z"/><path class="a" d="m1918.5 1493.4c0 81.3-408.5 147.2-912.5 147.2-503.9 0-912.5-65.9-912.5-147.2 0-81.2 408.6-147.1 912.5-147.1 504 0 912.5 65.9 912.5 147.1z"/><path class="c" d="m651.5 1510.7c-50.2-1.4-94.3-36.9-93-87.2l65.9-1137.2c1.3-50.3 43.2-90.1 93.5-88.7l669.1 17.6c50.2 1.3 121.1 30.8 119.1 106.2l-65.4 1100.2c-1.3 50.2-43.2 90-93.4 88.7z"/><path class="d" d="m716.5 260.1l703.6 16.2-45.4 1116.9-732.5-31.3z"/><path class="e" d="m1264.7 300.3l-398-23.7c-13.9-0.8-24.9-13.7-24.9-29.3v-33.8c0-16.2 11.8-29.3 26.3-29.3h398c14.5 0 26.2 13.1 26.2 29.3v57.4c0 16.9-12.6 30.3-27.6 29.4z"/><path class="f" d="m764.1 412.9c-26.3 42.6 43.1 55.9 48.5 19.5 6.9-46.4-34.3-42.4-48.5-19.5z"/><path fill-rule="evenodd" class="g" d="m788.6 459.4c-11.4 0-21.7-5.3-26.2-13.4-3.2-5.7-5.2-15.4 3.4-29.3 6.4-10.3 18.1-17.2 29.3-17.2 6.6 0 12.2 2.4 16.1 7 5.7 6.5 7.6 17.1 5.6 30.6-2.5 16.5-16.7 22.3-28.2 22.3zm6.5-57.2c-10.1 0-21.2 6.6-27 15.9-6.2 10.2-7.4 19.3-3.4 26.6 4.1 7.3 13.5 12 23.9 12 10.4 0 23.3-5.2 25.5-20 1.9-12.7 0.2-22.5-4.9-28.4-3.4-4-8.3-6.1-14.1-6.1z"/><path class="f" d="m751.5 566.9c-26.4 42.6 43.1 55.9 48.4 19.5 6.9-46.4-34.3-42.4-48.4-19.5z"/><path fill-rule="evenodd" class="g" d="m775.9 613.4c-11.3 0-21.6-5.3-26.2-13.4-3.1-5.7-5.1-15.4 3.5-29.3 6.3-10.3 18.1-17.2 29.3-17.2 6.6 0 12.1 2.5 16.1 7 5.6 6.5 7.5 17.1 5.5 30.6-2.4 16.5-16.7 22.3-28.2 22.3zm6.6-57.2c-10.1 0-21.2 6.6-27 15.9-6.3 10.2-7.5 19.3-3.4 26.6 4 7.3 13.4 12 23.8 12 10.4 0 23.4-5.2 25.6-19.9 1.8-12.8 0.1-22.6-5-28.5-3.4-4-8.2-6.1-14-6.1z"/><path class="f" d="m734.8 724.4c-26.3 42.7 43.1 55.9 48.5 19.6 6.8-46.4-34.4-42.5-48.5-19.6z"/><path fill-rule="evenodd" class="g" d="m759.3 770.9h-0.1c-11.3 0-21.6-5.2-26.2-13.4-3.1-5.6-5.1-15.3 3.5-29.2 6.3-10.3 18.1-17.2 29.3-17.2 6.6 0 12.2 2.4 16.1 7 5.6 6.5 7.6 17.1 5.6 30.6-2.5 16.4-16.8 22.2-28.2 22.2zm6.5-57.1c-10.1 0-21.2 6.5-27 15.9-6.3 10.1-7.4 19.3-3.4 26.5 4.1 7.3 13.4 12.1 23.8 12.1h0.1c10.4 0 23.3-5.3 25.5-20 1.9-12.7 0.2-22.6-4.9-28.5-3.4-3.9-8.3-6-14.1-6z"/><path class="f" d="m725.7 898.1c-26.4 42.7 43.1 55.9 48.4 19.5 6.9-46.3-34.3-42.4-48.4-19.5z"/><path fill-rule="evenodd" class="g" d="m750.1 944.6c-11.4 0-21.6-5.2-26.2-13.4-3.1-5.7-5.1-15.3 3.5-29.3 6.3-10.2 18.1-17.1 29.3-17.1 6.6 0 12.1 2.4 16.1 7 5.6 6.5 7.5 17.1 5.5 30.6-2.4 16.4-16.7 22.2-28.2 22.2zm6.6-57.1c-10.2 0-21.3 6.5-27 15.9-6.3 10.1-7.5 19.3-3.4 26.5 4 7.3 13.4 12 23.8 12 10.4 0 23.4-5.2 25.6-19.9 1.8-12.7 0.1-22.6-5-28.5-3.4-3.9-8.2-6-14-6z"/><path class="f" d="m717.9 1052.4c-26.3 42.6 43.1 55.9 48.5 19.5 6.8-46.4-34.4-42.4-48.5-19.5z"/><path fill-rule="evenodd" class="g" d="m742.4 1098.9h-0.1c-11.3 0-21.6-5.3-26.2-13.4-3.1-5.7-5.1-15.4 3.5-29.3 6.4-10.3 18.1-17.2 29.3-17.2 6.6 0 12.2 2.4 16.1 7 5.6 6.5 7.6 17.1 5.6 30.6-2.5 16.5-16.8 22.3-28.2 22.3zm6.5-57.2c-10.1 0-21.2 6.6-27 15.9-6.3 10.2-7.4 19.3-3.4 26.6 4.1 7.3 13.4 12 23.8 12h0.1c10.4 0 23.3-5.2 25.5-20 1.9-12.7 0.2-22.5-4.9-28.4-3.4-4-8.3-6.1-14.1-6.1z"/><path class="f" d="m1325.9 480.4c-61.6 0-390.5-12.6-476.9-20.8-1.1-0.1-1.9-1.1-1.8-2.2 0.1-1.1 1.1-2 2.2-1.9 87.2 8.4 421.7 21.2 478.3 20.9 1.1 0 2 0.9 2 2 0 1.1-0.9 2-2 2q-0.9 0-1.8 0z"/><path class="f" d="m1321.4 636.3c-61.5 0-390.4-12.6-476.9-20.9-1.1-0.1-1.9-1.1-1.8-2.2 0.1-1.1 1.1-1.9 2.2-1.8 86.4 8.3 415 20.8 476.5 20.8q1 0 1.8 0c1.1 0 2.1 0.9 2.1 2 0 1.2-0.9 2.1-2.1 2.1q-0.8 0-1.8 0z"/><path class="f" d="m1299.7 790.6c-61.6 0-390.5-12.6-476.9-20.9-1.1-0.1-1.9-1.1-1.8-2.2 0.1-1.1 1.1-1.9 2.2-1.8 87.2 8.4 421.7 21.1 478.3 20.9 1.1 0 2 0.9 2 2 0 1.1-0.9 2-2 2q-0.8 0-1.8 0z"/><path class="f" d="m1299.7 970.5c-61.6 0-390.5-12.5-476.9-20.8-1.1-0.1-1.9-1.1-1.8-2.2 0.1-1.1 1.1-2 2.2-1.8 87.2 8.3 421.7 21 478.3 20.8 1.1 0 2 0.9 2 2 0 1.1-0.9 2-2 2q-0.8 0-1.8 0z"/><path class="f" d="m1285 1130.9c-61.6 0-390.5-12.6-476.9-20.9-1.2-0.1-2-1-1.9-2.2 0.1-1.1 1.2-1.9 2.2-1.8 86.4 8.3 415 20.9 476.6 20.9q0.9 0 1.8 0c1.1 0 2 0.9 2 2 0 1.1-0.9 2-2 2q-0.9 0-1.8 0z"/><path class="h" d="m1325.8 778.2l-1.7 0.4c-3.3 0.5-6.4-1.7-7-4.9l-5.6-31.6c-0.5-3.2 1.6-6.4 4.9-6.9l1.7-0.4c3.3-0.5 6.4 1.7 7 4.9l5.5 31.6c0.6 3.2-1.6 6.4-4.8 6.9z"/><path class="h" d="m1309 796.4c0 0-23.1-6.5-32.2-24.5-3.2-6.2 10.5-38.2 18-36.1 7.5 2.1 32.2 26.7 32.2 26.7z"/><path class="h" d="m1304.4 794.5c-6.5-9 21.6-33.8 21.6-33.8 3.4-1.5 45 54.1 105.1 45.8 21.4-2.9 55.5-33.6 58.5-38.6 0.4-0.6 42.3 23.2 42.3 23.2-5.3 8.9-14.8 38.4-40.1 54.8-52.3 33.8-155.3 12-187.4-51.4z"/><path class="i" d="m1795.7 965.5c2.3-1.5 5.4-0.8 6.8 1.5l20.1 31.6c1.4 2.3 0.8 5.4-1.5 6.8-2.3 1.5-5.4 0.8-6.9-1.5l-20-31.6c-1.5-2.3-0.8-5.4 1.5-6.8z"/><path class="i" d="m1784.9 972.3l0.2-0.1c2.2-1.4 5.3-0.8 6.7 1.5l22.9 36.1c1.4 2.3 0.8 5.3-1.5 6.7l-0.2 0.1c-2.2 1.5-5.2 0.8-6.7-1.5l-22.9-36.1c-1.4-2.3-0.7-5.3 1.5-6.7z"/><path class="i" d="m1768.9 953.3l1.8 0.2c3.3 0.3 5.7 3.3 5.3 6.6l-3.4 31.9c-0.4 3.2-3.3 5.6-6.6 5.3l-1.8-0.2c-3.2-0.4-5.6-3.3-5.3-6.6l3.4-31.9c0.4-3.3 3.4-5.7 6.6-5.3z"/><path class="i" d="m1774.3 979c2.3-1.4 5.4-0.7 6.8 1.6l20.3 32c1.5 2.3 0.8 5.4-1.5 6.8-2.3 1.5-5.4 0.8-6.8-1.5l-20.3-32c-1.5-2.3-0.8-5.4 1.5-6.9z"/><path class="i" d="m1790.1 940.5c0 0 25.2 12.9 29 32.7 1.3 6.8-25.6 33.6-32.2 29.5-6.6-4.1-23.5-34.7-23.5-34.7z"/><path class="i" d="m1806 958.9l0.6-0.4c2.1-1.4 5-0.7 6.4 1.4l14.7 23.3c1.3 2.1 0.7 4.9-1.4 6.3l-0.6 0.4c-2.2 1.3-5 0.7-6.4-1.5l-14.7-23.2c-1.3-2.1-0.7-5 1.4-6.3z"/><path class="e" d="m1627.4 773.5c0 0-28.7-44.6-89.8-28-61.1 16.7-95.8 79-50.4 328.1 0 0 70.7-75.5 217.1-64.7 0 0-33.2-170.9-76.9-235.4z"/><path class="e" d="m1670 760.4l-37.1 38.2c0 0-109.6 37.5-140.6 39.1-31.1 1.6-45.7-46.6-45.7-46.6 0 0 34.8-48.5 114.6-53.8 54.9-3.6 108.8 23.1 108.8 23.1z"/><path class="g" d="m1512 715.7l0.3-0.6c-0.1-0.1-7.5-3.7-8.6-9.6-0.5-3.1 0.8-6.2 3.8-9.3q2.2-2.2 4-4.1c8.3-8.4 11.4-11.5 11.5-19.9h-0.8c-0.1 8.1-2.9 10.9-11.3 19.4q-1.8 1.8-3.9 4.1c-3.2 3.3-4.6 6.6-4 9.9 1.1 6.3 8.6 10 9 10.1z"/><path class="g" d="m1522.6 672.2c0 0 0 13-11.1 24.1-11.1 11.2-4.3 22.6 8 20.1 12.2-2.5 13.3 12.6 29.3 7.9 15.9-4.7-26.2-52.1-26.2-52.1z"/><path class="i" d="m1574.1 737c-6-2-8.4-2.6-9.6-8.9l-3.7-19.3-1.1-5.7-6.3-33.2-4.7 31.9-2.9 19.2-0.8 5.5c-0.5 3.3-2.6 11.9-5.4 13.4-3 1.6-1 9.1 5.6 9.6 20.7 1.6 28.9-12.5 28.9-12.5z"/><path class="g" d="m1560.9 708.3q0 0.2-0.1 0.5c-3 10-14.9 12.3-14.9 12.3l-0.1-0.1 2.9-19.2c3.5-0.4 8.5-0.6 11 1.3 1.3 1.1 1.9 2.7 1.2 5.2z"/><path class="i" d="m1521.3 668.1c4.4-20.2 21.3-33.6 37.6-30 16.3 3.7 25.9 22.9 21.5 43.1-4.5 20.1-21.3 33.5-37.7 29.9-16.3-3.7-25.9-22.9-21.4-43z"/><path class="i" d="m1575.2 685.8c-4.1 2.4-8.8 1.7-10.6-1.6-1.8-3.3 0-8 4.1-10.5 4-2.4 8.8-1.7 10.6 1.6 1.8 3.3 0 8-4.1 10.5z"/><path class="j" d="m1529.7 694.7c0 0 10 2.4 20.9 1.1 0 0-1.4 10.2-12.5 8.4-6.4-1-8.4-9.5-8.4-9.5z"/><path class="d" d="m1529.7 694.7c0 0 2 2.5 7.7 3.8 5.7 1.2 13.2-2.7 13.2-2.7 0 0-12.9 0.7-20.9-1.1z"/><path class="k" d="m1547.9 674.3c-0.2-0.1-0.3-0.3-0.4-0.5 0-0.4 0.2-0.7 0.6-0.8 0.2 0 5.3-1.3 8.3 3.9 0.2 0.3 0.1 0.8-0.3 0.9-0.3 0.2-0.7 0.1-0.9-0.2-2.6-2.7-6.7-3.2-6.9-3.2q-0.2 0-0.4-0.1z"/><path class="k" d="m1551.6 682.9c-0.3 1.6-1.5 2.7-2.7 2.5-1.2-0.2-1.9-1.7-1.6-3.3 0.3-1.6 1.5-2.8 2.7-2.5 1.2 0.2 1.9 1.7 1.6 3.3z"/><path class="k" d="m1523.1 672.5c-0.2 0-0.4-0.1-0.5-0.3-0.2-0.3-0.1-0.8 0.2-1 0.2-0.1 4.4-3.2 9.1 0.5 0.3 0.2 0.4 0.6 0.2 0.9-0.2 0.3-0.6 0.3-1 0.2-3.5-1.6-7.4-0.5-7.6-0.4q-0.2 0.1-0.4 0.1z"/><path class="k" d="m1529.8 679c0.3 1.6-0.4 3.1-1.5 3.4-1.2 0.2-2.4-0.9-2.7-2.5-0.4-1.6 0.3-3.1 1.5-3.4 1.1-0.2 2.3 0.9 2.7 2.5z"/><path class="g" d="m1544.9 642c0 0-2.2 12.8 13.1 18.4 15.4 5.7 24.8 14.8 20.1 25.7-4.6 10.9-35.3 28.9-18.6 42.2 16.7 13.2 16.5-4.7 35.9 3.8 19.4 8.4 29-17.9 18.6-36.7-10.5-18.8 4.4-59.1-48.4-68.9-52.8-9.8-42.9 36.3-42.9 36.3 0 0 19.1-6.9 22.2-20.8z"/><path class="d" d="m1564.3 731.8l0.3-0.4c-3.5-2.4-5.3-5.1-5.5-8.3-0.4-8.7 12.3-19.3 23.4-28.6 3-2.5 5.8-4.8 8.3-7.1 7-6.3 9.5-15.1 6.4-23-3.4-8.7-12.2-14.1-23.1-14.1q-0.4 0-0.8 0c-10.4 0-16.8-3.6-20.4-6.6-3.8-3.4-5.2-6.8-5.2-6.8l-0.4 0.1c0 0.2 1.4 3.6 5.3 7 3.6 3.1 10.1 6.8 20.7 6.8q0.4 0 0.8 0c10.7 0 19.4 5.2 22.7 13.8 3 7.8 0.7 16.2-6.3 22.5-2.5 2.3-5.3 4.6-8.3 7.1-11.2 9.3-23.9 20-23.5 28.9 0.2 3.3 2 6.2 5.6 8.7z"/><path fill-rule="evenodd" class="l" d="m1516.8 695.6c-4-2.6-6.8-8.4-7.5-15.4-1-11.5 4-22.9 11.3-25.4 2.7-1 5.4-0.6 7.8 0.9 4.1 2.6 6.9 8.4 7.5 15.4 1.1 11.5-4 22.9-11.2 25.4-1.6 0.6-3.3 0.7-4.8 0.4q-1.6-0.4-3.1-1.3zm17.8-24.3c-0.6-6.7-3.2-12-6.9-14.4-2.1-1.4-4.4-1.7-6.7-0.9-6.7 2.4-11.3 13.2-10.3 24 0.6 6.6 3.1 12 6.9 14.4 2.1 1.3 4.4 1.7 6.6 0.9 6.7-2.4 11.4-13.2 10.4-24z"/><g style="opacity:.3"><path class="d" d="m1571.7 671.7c0 11-6.3 21.3-14 23.1-7.8 1.8-14.2-5.5-14.3-16.5 0-10.9 6.2-21.3 14-23.1 7.8-1.8 14.2 5.6 14.3 16.5z"/></g><g style="opacity:.3"><path class="d" d="m1536 672.1c0.1 10.9-5.6 21.6-12.7 23.7-7 2.2-12.8-5-12.9-16 0-11 5.7-21.6 12.7-23.8 7.1-2.1 12.9 5.1 12.9 16.1z"/></g><path fill-rule="evenodd" class="l" d="m1547.8 692.8c-4.1-3.2-6.4-9-6.5-15.8-0.1-11.7 6.8-22.7 15.3-24.7 3.5-0.7 6.8 0 9.6 2.2 4.1 3.2 6.4 9 6.5 15.8 0.1 11.7-6.8 22.8-15.4 24.7q-2.5 0.6-4.9 0-2.5-0.5-4.6-2.2zm9.1-39.2c-8 1.8-14.4 12.3-14.3 23.4 0.1 6.3 2.3 11.8 6 14.7 2.5 2 5.4 2.6 8.5 2 7.9-1.8 14.3-12.3 14.2-23.4 0-6.3-2.3-11.8-5.9-14.7q-1.9-1.5-4.1-2-2.1-0.5-4.4 0z"/><path class="l" d="m1533.8 675.6q0.4 0.1 0.8-0.1c0.2-0.1 3.9-1.8 9.2 0.4 0.6 0.3 1.3 0 1.6-0.6 0.3-0.7 0-1.4-0.6-1.7-6.4-2.8-11.1-0.4-11.3-0.3-0.7 0.3-0.9 1.1-0.6 1.7 0.2 0.3 0.5 0.6 0.9 0.6z"/><path class="g" d="m1671.3 761.9c3.9 6-4.6 18.5-18.8 27.9-14.3 9.4-28.9 12.2-32.8 6.2-3.8-6 4.6-18.5 18.9-27.9 14.2-9.4 28.9-12.2 32.7-6.2z"/><path class="i" d="m1762 960.4l42.9-9.4c-41.5-93.7-113-167.7-131.3-183.9-2.7-2.4-6.4-3.4-9.9-2.6-5.3 1.2-13.6 4-21.8 10.6-8 6.5-13.2 11.9-16.4 15.6-2.3 2.7-2.1 6.7 0.6 9.1 19.2 17.5 100.1 79.7 135.9 160.6z"/><path class="g" d="m1704.3 1008.9c1.9 8.9-40.7 27.6-102.3 40.8-61.7 13.2-112.9 32.8-114.8 23.9-2-8.8 42.6-44.3 104.2-57.6 61.7-13.2 110.9-16 112.9-7.1z"/><path class="g" d="m1576.4 1474.4c0 0-0.4 17.7-12.4 22.7-12 5-46.8 9.5-33.8 20.9 7.4 6.5 42.6 2.3 52.5 2.3 9.9 0 19.2 4.3 26.6-2.3 8.1-7.3 0-43.6 0-43.6 0 0-8.6 4.4-16.3 4.2-11.1-0.3-16.6-4.2-16.6-4.2z"/><path class="g" d="m1773.9 1462.5c0 0 9.1 15.2 1.7 25.8-7.5 10.7-34.5 33.1-17.4 35.8 9.8 1.5 37.2-20.9 45.6-26.2 8.4-5.3 18.6-6.6 21.2-16.1 3-10.6-23.3-36.9-23.3-36.9 0 0-4.8 8.3-11.5 12.3-9.5 5.6-16.3 5.3-16.3 5.3z"/><path class="m" d="m1491.5 1073.6c3.1 34 8.3 77.8 17.2 131.3 17.1 102.8 37.3 206.3 47.2 256 3.5 17.8 18.5 30.8 36.2 31.5l9.5 0.3c19.1 0.8 34.7-15.6 33.3-35.2l-22.3-311.4-1.8-24.5-4.2-79.9c-14.7 4.7 32.3-17.2 22.3-7.1l21.5-19c0 0-123.9 18.6-158.9 58z"/><path class="m" d="m1567 1042.1l45.6 104 134.3 299.9c7.5 17.3 25 27.7 43.3 26l8-0.8c18.9-1.8 31.3-20.8 25.8-39.4l-114.3-378.9c-1-3.1-6.7-26.2-11.8-41.5 0 0-45.4 0-87.3 13.4-14.8 4.8-33.5 7.3-43.6 17.3z"/><path class="n" d="m1611.6 1146.5l2-0.8-13.2-31.7c-8.2-19.6-23.1-35.3-42-44.2l-1 2c18.4 8.7 33 24 41 43z"/><path class="g" d="m1313.1 1523.7c0 0-2.2 12.6-5 12.1-4.4-0.8-4.6-12.2-4.6-12.2z"/><path class="g" d="m1318.6 685q0-0.9 0.2-1.7c1-3.8 4.8-6.2 8.6-5.2l28.8 6.9q0.3 0.1 0.6 0.2c8.7 2.9 14.4 11.2 13.9 20.3l-13.1 249.4c-0.2 3.9-3.6 6.9-7.5 6.7-3.9-0.2-6.9-3.6-6.7-7.5l13.1-249.3c0.2-2.7-1.4-5.1-3.9-6.1l-28.5-6.9c-3.3-0.7-5.5-3.6-5.5-6.8z"/><path class="e" d="m1271.5 1451.5l15.9-793.3c0.2-7.5 6.4-13.5 14-13.4l18.6 0.2c7.5 0.1 13.6 6.2 13.6 13.7l4.5 792.2z"/><path class="g" d="m1321.5 645l-2.5-49.5c-0.3-4.2-3.6-7.4-7.8-7.5h-3.4c-4.4-0.1-7.9 3.4-8 7.7l-0.6 49z"/><path class="g" d="m1334.4 771.8c0 0-20.3-8.3-49.6-0.7l-1.2 50.5c0 0 27.4-12.7 51.2 0.7z"/><path class="o" d="m1313.1 1523.7l-8.9-0.1c-2.4 0-4.7-1.5-5.6-3.7l-25.4-58.3c-3.8-8.6-1.3-18.6 6.2-24.2 5.5-4 13.4-7.1 24.8-6.1 14.6 1.3 23.1 4.9 28 8.8 5.3 4.1 7.3 11.2 5.2 17.5l-20.6 63.5c-0.5 1.6-2 2.7-3.7 2.6z"/><path class="g" d="m1296.8 744.4q0 0 0 0l1.1-84.4c0-0.6 0.5-1.1 1.1-1 0.6 0 1.1 0.5 1.1 1q0 0.1 0 0.1l-1.2 84.3c0 0.6-0.5 1.1-1.1 1.1-0.6 0-1-0.5-1-1.1z"/><path class="i" d="m1275.8 752.1c0 0-1.2-12.2 10-13.2 14.2-1.3 29.4 9.6 20.4 10.5-8 0.8-15.8 0.5-15.8 0.5 0 0 23.6 3.2 20.6 9-3 5.8-22.4 2.9-22.4 2.9 0 0 22.4 6.3 17.7 10.9-4.6 4.6-21.6 1.6-21.6 1.6 0 0 24.2 4.1 18.7 9.3-5.4 5.2-15.6 0.7-22-0.3-6.1-1-7.5-5.3-6.1-11.1 0 0-2-6.6-0.1-10.2 0.7-1.3-0.5-3-0.4-4.1 0.1-2.1 1-5.8 1-5.8z"/><path class="g" d="m1287.9 1408.5q0 0 0-0.1l7.6-570.3c0-0.6 0.5-1 1.1-1 0.6 0 1.1 0.5 1.1 1.1q0 0 0 0l-7.6 570.3c0 0.6-0.5 1.1-1.1 1.1-0.6-0.1-1.1-0.5-1.1-1.1z"/><path class="g" d="m319.4 632.8c0 0-23.7-8.4-45.1 10.2-21.4 18.6 3.5 41-34.2 46.3-27.2 3.7-59.7 13.9-47.9 40.1 11.8 26.3-21.4 9.5-46.1 31.8-24.7 22.3-13.4 76.2 29.8 70.4 43.2-5.8 27.6 28.2 80 39.3 52.4 11 53.6-123.3 53.6-123.3z"/><path class="j" d="m219.4 819.6c0 0-37.4-6.2-47.8 30.3-10.4 36.4 9.9 110.8 34.7 117.7 24.8 6.8 40-16 40-16z"/><path class="i" d="m475.4 790.2c22.6-16.9 40.2-43.4 52.2-78.9 9.1-26.8 11.7-49.4 11.8-50.3l-52.5-7 26.2 3.5-26.2-3.5c-2.2 19.3-14.8 74.2-46.1 95.1-14.2 9.5-41 21.1-62 15l-7.1 51.3c35.8 10.3 72.2-3.9 99.1-21.9q2.3-1.6 4.6-3.3z"/><path class="i" d="m537.3 641.7c3 0.5 5.8-1.6 6.3-4.6l6.2-41.6c0.5-3-1.6-5.8-4.6-6.2-3-0.5-5.8 1.6-6.2 4.6l-6.3 41.6c-0.4 3 1.6 5.8 4.6 6.2z"/><path class="i" d="m523.5 639.6c3 0.4 5.8-1.6 6.3-4.6l6.9-46.5c0.5-3-1.6-5.8-4.6-6.3-3-0.4-5.8 1.7-6.2 4.6l-7 46.5c-0.5 3 1.6 5.8 4.6 6.3z"/><path class="i" d="m509.6 637.5c3 0.5 5.8-1.6 6.2-4.6l7.8-52c0.5-3-1.6-5.8-4.6-6.3-3-0.4-5.8 1.7-6.3 4.7l-7.8 51.9c-0.4 3 1.7 5.9 4.7 6.3z"/><path class="i" d="m502.2 663.7l0.7-0.4c3.5-2 4.7-6.4 2.7-9.9l-17.2-29.9c-2-3.4-6.5-4.6-9.9-2.6l-0.7 0.4c-3.5 2-4.7 6.4-2.7 9.9l17.3 29.9c2 3.4 6.4 4.6 9.8 2.6z"/><path class="i" d="m495.6 635.4c3 0.5 5.8-1.6 6.3-4.6l6.2-41.7c0.5-3-1.6-5.8-4.6-6.3-3-0.4-5.8 1.7-6.2 4.7l-6.3 41.6c-0.5 3 1.6 5.9 4.6 6.3z"/><path class="i" d="m539.5 661c0 0 7.9-32.9 4.3-39.8-3.6-6.8-43-12.5-47.9-5.4-4.9 7.1-9 38.2-9 38.2z"/><path class="g" d="m369.4 672.6c0 0 3.2 15.5 18.3 26.6 15.1 11.1 10.3 29.9-4 29.3-14.3-0.7-6.3 37.4-36.5 30.7-18.7-4.2 22.2-86.6 22.2-86.6z"/><path class="j" d="m368.2 1455.8c0 0 0.4 17.5 12.2 22.4 11.8 4.9 45.9 9.3 33.2 20.5-7.3 6.4-41.8 2.3-51.6 2.3-9.7 0-18.8 4.2-26.1-2.3-7.9-7.2 0-42.9 0-42.9 0 0 8.4 4.4 16 4.2 10.9-0.3 16.3-4.2 16.3-4.2z"/><path class="j" d="m232.9 1455.8c0 0 0.5 17.5 12.2 22.4 11.8 4.9 46 9.3 33.2 20.5-7.3 6.4-41.8 2.3-51.5 2.3-9.8 0-18.9 4.2-26.2-2.3-7.9-7.2 0.1-42.9 0.1-42.9 0 0 8.4 4.4 15.9 4.2 10.9-0.3 16.3-4.2 16.3-4.2z"/><path class="e" d="m455.7 978.7c0 0 2.2 72.8-21 212.6-16.8 100.9-36.6 202.6-46.4 251.3-3.4 17.5-18.1 30.2-35.5 30.9l-9.3 0.4c-18.8 0.8-34.1-15.4-32.7-34.6l23.6-329.8 5.8-108.5z"/><path class="j" d="m243 1042.8c1.1 8.8 51.2 7.8 112.6 0 61.4-7.8 109.2-21.1 108.1-29.9-1-8.9-50.6-10-112-2.2-61.4 7.8-109.8 23.2-108.7 32.1z"/><path class="e" d="m385.3 1030.7l-131.1 421.1c-5.5 17.6-21.4 29.7-39.5 30l-7.8 0.1c-18.6 0.3-32.9-16.9-29.5-35.6l71.7-395.6c1.1-4.7 4.6-8.5 9.1-9.8 24.6-7.1 129.5-27.6 127.1-10.2z"/><path class="m" d="m263.5 800.4c0 0 17.4-49.1 79.6-46.9 62.1 2.2 109 83.9 120.6 259.4 0 0-101.7-22.3-220.9 29.7 0 0-42.6-159.3 20.7-242.2z"/><path class="m" d="m419.6 812.8q-2.7 1.4-6 2c-18.3 3.3-69.5 6.6-106.9 8.6-6.9 0.4-13.3 0.7-18.9 1-14.4 0.7-23.9 1.2-23.9 1.2l-12.8-5.7-40.2-17.8c0 0 10.5-22.2 43-36.5 9.1-4 19.9-7.4 32.7-9.5 9.5-1.6 20.2-2.5 32-2.4 9.1 0.1 15.3-0.8 24.5-0.2q0.4 0.1 0.8 0.1c4.3 0 1.6-3 6.5-2.7 44.6 2.5 85.1 1.5 85.1 1.5 0 0 6.9 48.9-15.9 60.4z"/><path class="n" d="m326.7 1218.9l-2.1-0.7 28.2-85.7c6.5-19.8 19.9-36.3 37.7-46.5l1.1 1.9c-17.4 10-30.4 26-36.7 45.3z"/><path class="e" d="m292.4 1033.2c0 0 122.5-23.4 162.2-12.4l-19 28.2-70.8 4z"/><path class="g" d="m391.4 726.6l1.3-1.6c0-0.1 6.9-7.5 6.2-15.7-0.3-4.2-2.6-8-6.8-11.1q-2.9-2.2-5.4-4c-11.3-8.4-15.6-11.6-17.7-21.5l0.9-0.2c2 9.6 6.2 12.7 17.3 21q2.5 1.8 5.4 4c4.4 3.3 6.8 7.2 7.2 11.7 0.7 8.6-8.1 17-8.4 17.4z"/><path class="i" d="m326.8 737.6l10.2-26.4 2.6 2.7 16.9-31.5-5.4 33.7-3.2 20.3-0.9 5.7c-1.6 7.1 8.3 12.4 8.3 12.4 2.1 4.3 3.4 11-7.2 13.4-12.5 2.8-32.5-8.3-38.6-20.3 0 0 14.1-4 17.3-10z"/><path class="j" d="m336.7 714.2c0 0.2-1.3 1.6-1.2 1.8 2.9 6.9 13.6 12.5 13.6 12.5l2-12.4c-3.4-1.6-8.4-3.4-11.5-2.2-1.7 0.7-2.7-2.4-2.9 0.3z"/><path class="i" d="m373.1 668.2c-8.3-20.2-28.3-31.1-44.7-24.4-16.3 6.7-22.9 28.5-14.6 48.7 8.3 20.2 28.3 31.1 44.6 24.4 16.4-6.7 23-28.5 14.7-48.7z"/><path class="j" d="m369.1 697.5c0 0-10 4.4-21.6 5 0 0 3.3 10.3 14.5 6.4 6.5-2.2 7.1-11.4 7.1-11.4z"/><path class="d" d="m369.1 697.5c0 0-1.6 3-7.3 5.3-5.8 2.3-14.3-0.3-14.3-0.3 0 0 13.6-1.7 21.6-5z"/><path class="p" d="m346.4 679.5c0.2-0.1 0.3-0.3 0.3-0.5 0-0.5-0.3-0.8-0.7-0.8-0.2 0-5.7-0.4-7.9 5.6-0.2 0.3 0 0.8 0.4 0.9 0.4 0.1 0.7-0.1 0.9-0.4 2.3-3.4 6.4-4.6 6.6-4.6q0.3 0 0.4-0.2z"/><path class="p" d="m344.2 689.1c0.6 1.7 2 2.6 3.2 2.2 1.2-0.5 1.6-2.1 1-3.8-0.6-1.6-2-2.6-3.2-2.1-1.2 0.4-1.7 2.1-1 3.7z"/><path class="p" d="m371.9 673.2c0.3-0.1 0.4-0.2 0.5-0.5 0.2-0.3 0-0.8-0.4-0.9-0.2-0.1-5.1-2.6-9.4 2.1-0.3 0.3-0.3 0.7 0 1 0.3 0.3 0.7 0.2 1.1 0 3.3-2.3 7.6-1.8 7.8-1.8q0.2 0.1 0.4 0.1z"/><path class="p" d="m366.2 681.2c-0.1 1.7 0.9 3.2 2.2 3.2 1.2 0 2.3-1.3 2.3-3.1 0.1-1.7-0.9-3.2-2.1-3.2-1.3 0-2.4 1.3-2.4 3.1z"/><path class="g" d="m210.1 697.9l-0.3-1c21-6.2 44.8-13.2 47.3-40.9 1-10.3 9.9-18.4 25.8-23.3 12-3.7 26.5-4 26.6-4l-2.6 0.8c-0.5 0-48.1 2.6-48.7 26.6-0.9 32.3-26.8 35.5-48.1 41.8z"/><path class="g" d="m136.8 806.1c-9.3-11.7-11.4-27.2-5.6-40.7 4.7-10.8 13.8-17.9 24.5-18.8 14.8-1.2 28.8-3.1 31.1-8.2 0.8-1.8 0.2-4.1-1.9-6.9-1.8-2.4-2.5-5.1-2-8 1.5-8.6 12.5-16.2 12.9-16.5l0.6 0.8c-0.1 0.1-11.1 7.7-12.4 15.9-0.4 2.6 0.1 5 1.7 7.1 2.4 3.2 3.1 5.9 2.1 8.1-2.4 5.3-14 7.3-32 8.8-10.3 0.9-19.1 7.7-23.7 18.2-5.6 13-3.5 28.2 5.5 39.5z"/><path class="j" d="m445.6 837.1c0.5-4.4-2.8-8.4-7.2-8.8l-103-10.4c-4.2-0.5-8 2.4-8.7 6.6l-25.4 144.7c-0.8 4.4 2.1 8.6 6.5 9.3l112.7 14.9c4.6 0.8 9.3 2.4 9.8-2.2z"/><path class="q" d="m465.3 838.8c0.5-4.4-2.7-8.3-7.2-8.8l-103-10.4c-4.2-0.4-8 2.5-8.7 6.6l-25.4 144.8c-0.8 4.3 2.1 8.5 6.5 9.3l113.1 19.8c4.6 0.8 8.9-2.5 9.4-7.2z"/><path class="r" d="m369.9 843.3c0 0 67.3 7.3 68.7 8.5 1.5 1.2 0.7 4.8-4.3 4.7-4.9-0.1-64-8.7-66.2-9.7-2.1-1.1-1.6-3.9 1.8-3.5z"/><path class="r" d="m379.5 836.8c0 0 43.3 4.7 44.2 5.5 0.9 0.7 0.4 3.1-2.8 3-3.2-0.1-41.2-5.6-42.5-6.3-1.4-0.7-1.1-2.5 1.1-2.2z"/><path class="j" d="m210.9 802.1c-1.9 7.6 9.7 12.5 32 18.6 22.4 6.1 31.7 7.7 33.7 0.1 1.9-7.7-7-16.1-29.3-22.3-16.3-4.6-34.5-4.1-36.4 3.6z"/><path class="h" d="m513.9 660.7q-0.1 0-0.2 0c-0.4-0.1-0.6-0.5-0.6-1 0.1-0.3 1.6-7.6-4.6-11.3-6.8-4.1-13.2-12.2-13.5-12.5-0.3-0.3-0.2-0.8 0.1-1.1 0.4-0.3 0.9-0.2 1.1 0.1 0.1 0.1 6.6 8.2 13.1 12.2 7.2 4.3 5.4 12.9 5.4 13-0.1 0.3-0.4 0.6-0.8 0.6z"/><path class="j" d="m272.5 918.2l-5.8-8.3c26-29.9 27.8-60.3 21.1-85.5-3.9-14.6-10.6-27.4-17-37.3-8.7-13.4-16.9-21.5-16.9-21.5 9.1-4 19.9-7.4 32.7-9.5 1.4 2.9 2.9 6.5 4.6 10.9 4.1 11.1 9 27.3 14.3 50.8q0.7 2.9 1.2 5.6c12.9 68.8-34.2 94.8-34.2 94.8z"/><path class="i" d="m410.7 930.4c0-8.4-22.3-3.7-22.3-3.7-1.1 0.2-4.7 0.6-5.1-0.5-0.3-0.7 7.9-1.9 8.7-2 5.7-1 24.1-4.5 20.2-10.7-4.3-6.6-50.6 1.9-50.6 1.9 0 0-0.1-0.1 0-0.1 0 0 4.4-7.1 6.6-8.8 5.2-3.8 5.9-7.5 4-10.3-0.6-0.8-1.5-1.2-2.5-1.1-2.1 0.1-6.2 1.2-11.9 5.6-8.1 6.5-24.6 14.4-31.5 27.1-2 3.7-16.7 31.7 4.4 43.3 9.7 5.4 24.7 7.3 45.1 2.5 0 0 33.4-7.5 32.5-15.1-0.5-3.7-14.6-0.8-14.6-0.8-0.9 0.1-4.5 0.7-4.5-0.2q0-0.1 0-0.1c0-0.9 2.6-1.4 3.5-1.6 0 0 17.3-4.7 17.3-9.5-0.1-8.5-12-6.3-17.6-5-1.1 0.3-4.8 1.3-5 0.2q0 0 0-0.1c-0.1-0.7 1.2-1.5 3.1-1.8 0 0 20.2-3.4 20.2-9.2z"/><path class="i" d="m330.2 923.7c-22.5 5-46.2 2.3-55.8-13.6-13.2-22.2-10.1-54.5-5-76.7 2.6-11.4-0.1-20.4-13.8-28-5.7-3.1-10.8-4.8-25.4-5.3-7.1-0.3-13.5 1.2-15.2 6.9-2.8 8.9-4.5 15.9-6.7 32.4-5.4 39.3 0.3 74.3 16.3 101.3 19.7 33.1 77.2 49 130.1 35.6 5.6-1.4-19.3-53.7-24.5-52.6z"/><g style="opacity:.5"><path fill-rule="evenodd" class="h" d="m239.8 931.4q-0.8 0-1.7-0.1c-3.6-0.7-7.4-3.4-10.1-7.4-4.6-6.6-4.6-14.3-0.2-17.5 1.7-1.2 3.8-1.6 6-1.2 3.7 0.6 7.5 3.4 10.2 7.3 4.5 6.7 4.6 14.4 0.1 17.6-1.2 0.9-2.7 1.3-4.3 1.3zm-7.6-23.7c-0.9 0-1.9 0.2-2.8 0.8-3.2 2.3-2.8 8.7 0.7 14 2.3 3.3 5.5 5.7 8.5 6.2 1.1 0.2 2.6 0.2 4-0.8 3.1-2.2 2.8-8.6-0.8-13.9-2.3-3.3-5.5-5.7-8.4-6.2q-0.6-0.1-1.2-0.1z"/></g><path class="g" d="m350.9 646c0 0 18.8 19.7-14.9 21.9-17.2 1.1-22.2 25.9-11.3 32.1 18.8 10.6 32.7 79-31.4 63.4-15.9-3.9-10-18.8-43.1-17.2-17.2 0.8 28.3-11.5 31.9-32.8 3.8-22.5-32.9-73.7 20-83.9 7-1.3 30.5-1.6 35.5-1.1 39.3 4.2 33.8 34.5 33.8 34.5 0 0-7.6-12.8-20.5-16.9z"/><path class="i" d="m317 695.3c4.3 2.6 9.3 1.8 11.2-1.7 1.9-3.5 0-8.5-4.3-11.1-4.3-2.6-9.3-1.8-11.2 1.7-2 3.6 0 8.5 4.3 11.1z"/><path class="d" d="m301.2 747.9c-9.5 0-20-4.7-30.8-14.2-4.6-4.1-9.7-5.9-14.9-5.4-11.3 1.1-20 12.4-20.1 12.6l-0.9-0.7c0.4-0.5 9.2-11.8 20.9-12.9 5.5-0.6 10.8 1.3 15.7 5.6 18.5 16.2 36.1 18.4 48.4 6.1 7.6-7.6-1.2-23.6-8.9-37.8-5-9.1-9.8-17.8-9.7-23.4 0.1-5.6 2.1-10.2 6-13.8 5.7-5.4 15.3-8 26.9-7.5 6.1 0.3 10.1-0.8 11.7-3.4 2-3.2-0.3-7.5-0.3-7.6l0.9-0.5c0.1 0.2 2.6 5 0.3 8.7-1.9 2.9-6.1 4.2-12.7 3.9-11.3-0.6-20.6 2-26.1 7.2-3.7 3.4-5.5 7.8-5.6 13-0.1 5.3 4.6 13.9 9.5 22.9 7.9 14.5 16.9 30.9 8.8 39-5.5 5.5-12 8.2-19.1 8.2z"/></svg>