<svg version="1.2" xmlns="http://www.w3.org/2000/svg" viewBox="0 0 930 692" width="930" height="692"><defs><clipPath clipPathUnits="userSpaceOnUse" id="cp1"><path d="m880.03 689.22c-41.4 4.23-84.64 0.63-125.88 0.63q-105.8 0-211.59 0-118 0-235.99 0-65.48 0-130.95 0c-30.88 0-61.99-0.02-92.74 1.82-11.66 0.7-23.74 0.66-34.49-3.89-7.53-3.19-14.63-9.15-17.91-16.77-4.22-9.81 3.33-17.76 0.68-27.47-1.6-5.82-7.99-9.86-12.96-12.42-14.53-7.46-23.3-25.99-14.24-40.99 4.15-6.86 11.25-11.53 18.79-14.26 15.75-5.68 33.68-5.62 50.19-5.58 15.61 0.04 31.17 2.03 46.75 2.04q97.85 0 195.7 0 118.81 0 237.62 0 104.93 0 209.86 0 36.37 0 72.74 0c8.18 0 16.35 0.05 24.52 0 8.92-0.06 22.66-0.83 25.6 10.57 2.75 10.68-11.06 18.9-11.98 29.18-2.59 28.8 55.26 16.8 55.97 49.6 0.16 7.41-4.71 14.25-10.94 18.28-6.23 4.03-13.67 5.7-20.99 6.91q-8.81 1.44-17.76 2.35z"/></clipPath><linearGradient id="P" gradientUnits="userSpaceOnUse"/><linearGradient id="g1" x2="1" href="#P" gradientTransform="matrix(17.499,48.332,-48.284,17.482,203.717,192.636)"><stop offset=".27" stop-color="#371b85" stop-opacity=".91"/><stop offset=".56" stop-color="#f26d5a" stop-opacity="0"/></linearGradient><linearGradient id="g2" x2="1" href="#P" gradientTransform="matrix(-6.871,49.215,-37.797,-5.277,767.098,244.404)"><stop offset=".27" stop-color="#371b85" stop-opacity=".91"/><stop offset=".56" stop-color="#f26d5a" stop-opacity="0"/></linearGradient><linearGradient id="g3" x2="1" href="#P" gradientTransform="matrix(-11.898,48.895,-55.869,-13.596,589.775,276.699)"><stop offset=".27" stop-color="#371b85" stop-opacity=".91"/><stop offset=".56" stop-color="#f26d5a" stop-opacity="0"/></linearGradient><linearGradient id="g4" x2="1" href="#P" gradientTransform="matrix(9.16,74.804,-195.013,23.879,92.625,593.496)"><stop stop-color="#201b59" stop-opacity=".91"/><stop offset=".56" stop-color="#2d3a8d" stop-opacity="0"/></linearGradient><linearGradient id="g5" x2="1" href="#P" gradientTransform="matrix(9.862,80.542,-209.973,25.711,814.147,590.765)"><stop stop-color="#201b59" stop-opacity=".91"/><stop offset=".56" stop-color="#2d3a8d" stop-opacity="0"/></linearGradient><clipPath clipPathUnits="userSpaceOnUse" id="cp2"><path d="m691.51 607.67c0.42-3.01 1.46-5.72 3.83-7.1 3.38-1.98 7.9-0.33 11.83-1.07 11.07-2.06 10.98-17.51 10.76-26.01q-0.22-8.12-0.73-16.22c-0.09-1.43-0.21-2.92-0.95-4.15-1.34-2.21-4.4-2.86-6.89-2.14-4.84 1.38-7.56 6.61-8.42 11.57-0.85 4.96-0.43 10.12-1.74 14.98-0.24 0.91-0.55 1.82-1.07 2.61-0.59 0.89-1.45 1.61-2.42 2.07-1.42 0.67-3.18 0.78-4.5-0.07-1.53-0.98-1.27-2.21-1.26-3.7 0.01-1.78-0.25-3.61-0.46-5.42q-0.69-6.1-1.26-12.22c-0.75-8.01-1.4-16.03-2.24-24.03-0.38-3.67-0.8-7.45-2.63-10.73-7.92-14.23-19.99-1.73-21.1 8.64-2.53 23.6 9.76 45.85 8.73 69.28-0.04 0.98-0.09 2-0.54 2.9-1.85 3.68-7.76 3.04-10.5 0.91-4.28-3.33-2.75-10.55-2.75-14.9 0-3.55-1.14-7.55-4.57-9.21-3.89-1.89-8.97 0.37-11.18 3.85-2.86 4.48-2.55 12.17-2.12 17.16 0.31 3.61 1.17 7.26 3.29 10.32 2.12 3.06 5.65 5.45 9.61 5.69 2.28 0.14 4.89-0.35 6.63 1.02 2.11 1.67 1.35 4.73 1.44 7.28 0.16 5.06 4.48 9.39 9.52 11.52 5.03 2.13 10.71 2.49 16.25 2.81 4.7-7.53 5.01-16.22 5.26-24.64 0.08-2.8-0.37-7.16 0.18-11z"/></clipPath></defs><style>.a{opacity:.5;fill:#80b2ba}.b{opacity:.6;fill:#a1e3dd}.c{fill:#f0f0f0}.d{fill:none;stroke:#fff;stroke-miterlimit:10;stroke-width:1.5}.e{fill:#a1e3dd}.f{fill:#110809}.g{fill:none;stroke:#110809;stroke-miterlimit:10;stroke-width:4}.h{fill:#f7fae6}.i{fill:#ff9575}.j{fill:#0e398a}.k{fill:#f02b66}.l{fill:#2155b5}.m{fill:#1c0029}.n{opacity:.6;fill:none;stroke:#051433;stroke-miterlimit:10;stroke-width:2}.o{fill:#fff}.p{fill:#111314}.q{fill:url(#g1)}.r{fill:#151a36}.s{fill:#fad100}.t{fill:#d4004a}.u{fill:url(#g2)}.v{fill:#7a483a}.w{fill:url(#g3)}.x{fill:#fff5f5}.y{fill:#c9cdd1}.z{fill:#006149}.A{fill:#40a876}.B{fill:#138f70}.C{fill:#47ba9b}.D{fill:url(#g4)}.E{fill:url(#g5)}.F{fill:none;stroke:#47ba9b;stroke-miterlimit:10}.G{fill:#80b2ba}.H{fill:none;stroke:#fff;stroke-miterlimit:10;stroke-width:2}</style><path class="a" d="m743.4 593.3c7.8-7.9 15.3-16.2 22.2-25 18.8-23.5 34.2-50.1 44.2-78.5 4.2-11.9 4-21.3 5.2-33.4 1.3-14 7.2-27.4 11.2-40.8 16.5-55 33.2-110.4 39.9-167.6 5.5-47.1 12.1-110.7-43.5-128.9-25.8-8.4-54-4.3-80.1 3.2-26.1 7.4-51.4 18.1-78.2 22.7-38.3 6.6-78 0.4-114.9-11.9-94.5-31.4-183.8-105.6-289.6-83.3-48.8 10.3-91.3 42.5-120.6 82.8-29.4 40.4-46.5 88.5-56.8 137.3-21.5 102.6-24.9 237.3 42.1 323.4z"/><path class="b" d="m813.7 78c-11.1-25.6-28.9-48.4-52.3-60.7-43.4-22.7-93.4-20.9-139.3-7.2-50 14.8-96.4 41.4-134.5 77-20.5 19.2-38.6 40.9-61 57.8-39.2 29.4-88.8 41.8-137.7 45.6-36.4 2.9-73.9 1.5-108.1 14-41.8 15.3-74.1 50.1-95.3 89.2-15.8 28.8-26.1 60.1-35.1 91.6-7.2 25.4-7.7 51.5-12.1 77.6-6.5 38.3-8.3 79.6-1.8 119h792.3q5.6-8.5 10.9-17.2c25.9-42.8 42.9-90.4 53-139.3 9.6-46.4 21.6-102.7 11.7-149.6-1.5-7.2-3.6-14.5-7.5-20.8-12.8-21-41.7-26.6-56.8-46-16.4-21-11.8-50.7-13.4-77.3-1-17.5-5.5-36.3-13-53.7z"/><path class="a" d="m762 590.2c15.8-12.5 27.9-28.5 32.8-51.4 8-36.6 8.1-74.4 8.1-111.9 0.1-36.5 0.1-73-3.3-109.3-2.7-28.3-8-64.3-18.9-90.6-6.5-15.5-17.9-29.4-33.3-36.1-7.9-3.4-17.6-4.6-24.9 0.1-3.7 2.4-6.3 6.1-9.7 9-9.7 8.4-25.3 8.7-35.4 0.8-6.6-5.2-10.4-13-14.4-20.4-10.9-20.6-24.1-40.5-42.3-55-52.4-41.8-111.6-4.2-155 32.6-21.3 18.1-42.4 37.5-60.5 58.8-15.7 18.5-27.9 40.1-43.6 59-31.6 38.3-69 71.9-110.4 99.2-24.8 16.3-51.3 30.6-72.3 51.6-15.3 15.4-27.2 33.9-37.9 52.9-29.3 51.7-47.3 130.6 16.1 166.2 19.6 11.1 42.3 15.7 64.7 18.6 45.5 5.9 91.6 5.6 137.2 1.6 23.4-2.1 46.6-5.3 69.8-8.8 15.8-2.4 31.5-0.8 47.1-3.4 42.6-6.9 83.6-11.8 126.9-13.9 36.2-1.8 67-4.2 101.2-18.7 20.9-8.8 41.5-17.9 58-30.9z"/><path class="c" d="m880 689.2c-41.4 4.2-84.6 0.6-125.8 0.6q-105.8 0-211.6 0-118 0-236 0-65.5 0-131 0c-30.9 0-62 0-92.7 1.9-11.7 0.7-23.8 0.6-34.5-3.9-7.5-3.2-14.6-9.2-17.9-16.8-4.2-9.8 3.3-17.8 0.7-27.5-1.6-5.8-8-9.8-13-12.4-14.5-7.4-23.3-26-14.2-41 4.1-6.8 11.2-11.5 18.8-14.2 15.7-5.7 33.6-5.6 50.1-5.6 15.6 0 31.2 2 46.8 2q97.8 0 195.7 0 118.8 0 237.6 0 104.9 0 209.9 0 36.3 0 72.7 0c8.2 0 16.4 0.1 24.5 0 8.9 0 22.7-0.8 25.6 10.6 2.8 10.7-11 18.9-12 29.2-2.5 28.8 55.3 16.8 56 49.6 0.2 7.4-4.7 14.2-10.9 18.3-6.2 4-13.7 5.7-21 6.9q-8.8 1.4-17.8 2.3z"/><g clip-path="url(#cp1)"><path class="d" d="m-17.4 585.5h944.2"/><path class="d" d="m-17.4 599.7h944.2"/><path class="d" d="m-17.4 613.9h944.2"/><path class="d" d="m-17.4 628h944.2"/><path class="d" d="m-17.4 642.2h944.2"/><path class="d" d="m-17.4 656.4h944.2"/><path class="d" d="m-17.4 670.6h944.2"/><path class="d" d="m-17.4 684.8h944.2"/><path class="d" d="m-17.4 699h944.2"/><path class="d" d="m-17.4 713.1h944.2"/><path class="e" d="m880 689.2c-41.4 4.2-84.6 0.6-125.8 0.6q-105.8 0-211.6 0-118 0-236 0-65.5 0-131 0c-30.9 0-62 0-92.7 1.9-11.7 0.7-23.8 0.6-34.5-3.9-7.5-3.2-14.6-9.2-17.9-16.8-4.2-9.8 3.3-17.8 0.7-27.5-1.6-5.8-8-9.8-13-12.4-14.5-7.4-23.3-26-14.2-41 4.1-6.8 11.2-11.5 18.8-14.2 15.7-5.7 33.6-5.6 50.1-5.6 15.6 0 31.2 2 46.8 2q97.8 0 195.7 0 118.8 0 237.6 0 104.9 0 209.9 0 36.3 0 72.7 0c8.2 0 16.4 0.1 24.5 0 8.9 0 22.7-0.8 25.6 10.6 2.8 10.7-11 18.9-12 29.2-2.5 28.8 55.3 16.8 56 49.6 0.2 7.4-4.7 14.2-10.9 18.3-6.2 4-13.7 5.7-21 6.9q-8.8 1.4-17.8 2.3z"/></g><path class="f" d="m804.5 570.7h4.2v-92.9h-4.2z"/><path class="g" d="m843.4 590.2c0-13.7-24.2-19.5-36.4-19.5-14.4 0-36.4 5.3-36.4 19.5"/><path class="g" d="m806.6 593.9v-22.8"/><path class="f" d="m764.7 593.5c0 3.3 2.7 6 5.9 6 3.3 0 6-2.7 6-6 0-3.3-2.7-5.9-6-5.9-3.2 0-5.9 2.6-5.9 5.9z"/><path class="f" d="m800.8 593.5c0 3.3 2.6 6 5.9 6 3.3 0 6-2.7 6-6 0-3.3-2.7-5.9-6-5.9-3.3 0-5.9 2.6-5.9 5.9z"/><path class="f" d="m836.9 593.5c0 3.3 2.6 6 5.9 6 3.3 0 6-2.7 6-6 0-3.3-2.7-5.9-6-5.9-3.3 0-5.9 2.6-5.9 5.9z"/><path class="h" d="m814.8 446.6v-68.3c0-11.8 9.5-21.4 21.4-21.4h23.6c11.8 0 21.4 9.6 21.4 21.4v76.4c0 16.9-13.8 30.7-30.7 30.7h-35.3-41.6c-2 0-3.6-1.6-3.6-3.6 0-2 1.6-3.6 3.6-3.6h9.6c17.4 0 31.6-14.1 31.6-31.6z"/><path class="f" d="m265.9 558.6h-4.2v-92.9h4.2z"/><path class="g" d="m227 578.1c0-13.8 24.3-19.5 36.4-19.5 14.4-0.1 36.4 5.3 36.4 19.5"/><path class="g" d="m263.8 581.7v-22.8"/><path class="f" d="m305.7 581.4c0 3.3-2.6 5.9-5.9 5.9-3.3 0-6-2.6-6-5.9 0-3.3 2.7-6 6-6 3.3 0 5.9 2.7 5.9 6z"/><path class="f" d="m269.6 581.4c0 3.3-2.6 5.9-5.9 5.9-3.3 0-6-2.6-6-5.9 0-3.3 2.7-6 6-6 3.3 0 5.9 2.7 5.9 6z"/><path class="f" d="m233.5 581.4c0 3.3-2.6 5.9-5.9 5.9-3.3 0-6-2.6-6-5.9 0-3.3 2.7-6 6-6 3.3 0 5.9 2.7 5.9 6z"/><path class="h" d="m263.8 434.5v-68.4c0-11.8-9.6-21.4-21.5-21.4h-23.5c-11.9 0-21.5 9.6-21.5 21.4v76.5c0 16.8 13.9 30.6 30.7 30.6h35.4 41.5c2 0 3.6-1.6 3.6-3.6 0-2-1.6-3.6-3.6-3.6h-9.6c-17.4 0-31.5-14.1-31.5-31.5z"/><path class="i" d="m443.1 288.3c0.9-1.9 1.6-3.8 2.2-5.7 1.9-6.5 1.8-13.7 5.6-19.3 2 0.2 2.7 2.7 2.9 4.8 0.6 7.4 0 14.9-0.6 22.4-0.2 1.9-0.3 3.8-1 5.5-0.7 2-2.1 3.7-3.5 5.3-2.6 3.2-9.5 15.3-14.1 13.6-3.3-1.2-4.6-8.5-3.7-11.4 1.5-4.2 4.5-5.6 7.4-8.4 1.9-1.9 3.5-4.2 4.8-6.8z"/><path class="f" d="m370 597.2q0.2 0.4 0.6 0.8c3.5 3.5 10.7 2.7 15.4 2.8 6.8 0 13.5 0 20.3-1.1 2.1-0.3 4.4-0.9 5.8-2.6 3.2-3.7-1.9-6.9-4.8-7.6-3-0.8-6.2-1-9.3-1.5-3-0.5-6.1-1.4-8.5-3.4-1.8-1.5-3.2-3.8-3.7-6.2-0.5-2.6-0.2-5.7-2.1-7.4-1.7-1.6-5.1-1.7-7.2-0.5-2.6 1.4-4.4 4-5.4 6.7-1.5 4.2-1.2 9-1.7 13.4-0.2 2.2-0.5 4.8 0.6 6.6z"/><path class="j" d="m395 467.7q-0.3-1.7-0.6-3.3c-2.1-12.8-6.6-24.5-9.7-37-4.3-17.2-8.6-34.2-14.2-51-2.3-6.9-4.1-15.6-7.7-21.9-3.3-5.8-7.7-5.3-14.4-4.1-3.8 0.7-7.8 1.6-10.5 4.2-1.8 1.8-2.9 4.2-3.8 6.5-5.4 13-7.5 24.9-8.6 38.7-0.7 9.3 1.3 16.3 3.5 25 2.6 9.9 2.5 18.9 8.2 27.8 3.8 6.1 9 11.4 11.3 18.2 2.2 6.8 1.9 14.1 4.1 20.9 2 6 4.9 11.6 7.4 17.4 2.8 6.6 3.1 13.9 3.4 21q1 26.7 2.1 53.5 12.4-2.6 24.7-5.2c1.2-0.3 2.4-0.6 3.1-1.4 0.7-1 0.7-2.4 0.6-3.6-1.3-21.8 1.3-43.6 2.3-65.4 0.6-13.4 0.6-27-1.2-40.3z"/><path class="f" d="m288.9 605.3q0.3 0.5 0.7 0.8c3.5 3.5 10.6 2.8 15.4 2.8 6.7 0 13.5 0 20.2-1.1 2.1-0.3 4.4-0.9 5.9-2.6 3.2-3.7-2-6.9-4.9-7.6-3-0.8-6.1-1-9.2-1.5-3.1-0.5-6.2-1.4-8.5-3.4-1.9-1.5-3.2-3.8-3.7-6.2-0.5-2.6-0.3-5.7-2.2-7.4-1.6-1.6-5-1.7-7.1-0.5-2.6 1.4-4.4 4-5.4 6.7-1.6 4.2-1.2 9-1.7 13.4-0.2 2.2-0.6 4.8 0.5 6.6z"/><path class="i" d="m380.2 244.8q0.6-0.1 1.2-0.3c3.3-1.2 5.7-4.2 7-7.5 1.3-3.3 1.5-6.9 1.3-10.4-0.1-2.7-0.4-5.3-0.2-7.9 0.1-2.7 0.8-5.5 0.1-8.1-1.7-6.6-9.8-7.5-15.5-7.3-6.8 0.2-14.6 4.2-18.3 10.1-1.9 3.1-2.5 7.1-0.9 10.4 1.3 2.7 3.8 4.6 6.6 5.9q-6 6.8-12 13.6c-3.6 4-8 7.7-9.4 13.2-0.8 3.2 3.5 4.1 5 1.7 1.1-1.5 2.4-2.8 3.9-4 0.4 2.6 2.3 4 4.4 4 0.3 2.3 2.5 4.1 4.9 3.3 8.2-3 10.9-13.2 19.3-16 0.9-0.3 1.8-0.5 2.6-0.7z"/><path class="k" d="m351.8 272.4c1.2-4.4 7.2-13.4 5-17.4-1.8-3.3-6.1-4.6-9.8-4-3.8 0.6-7.1 2.7-10.1 4.9-17.5 12.8-31.1 30.5-40 50.3-1.9 4.2-3.6 8.5-4 13.1-0.4 4.9 0.7 9.7 1.8 14.5q7.1 30.6 14.2 61.3c5 2.2 11-1.9 12.9-7.1 2-5.1 1-10.8 0.2-16.3q-1.6-10.1-2.8-20.2c-0.8-7.4-1.4-15.4 2.1-21.9 1.6-2.9 3.9-5.5 4.7-8.6 0.5-2.1 0.4-4.2 1.1-6.2 1.6-4.7 6.8-7.4 9.8-11.2 3.5-4.7 7.1-10.8 9.5-16.2 2.2-4.9 4-9.9 5.4-15z"/><path class="k" d="m380.2 308c0-7.6 2-15 4.5-22.1 2.4-7 6.4-13.7 8.1-20.8 0.3-1.1 0.5-2.2 0.2-3.2-0.3-1.8-1.8-3.1-3.3-4.1-9.6-6.7-23.8-9.7-35.3-9.2-16.8 0.8-29.2 15.5-31 31.7-1.1 8.7 0.4 17.4 2.2 25.9 1.9 8.5 4.1 17 4.6 25.7 0.4 5.9-0.1 11.9-0.3 17.8-0.1 5.5-1.4 11.5 4.6 14.2 14.5 6.6 29.9 3 37.6-11.2 3.6-6.6 5.2-14.1 6.6-21.5 1.6-7.9 1.4-15.5 1.5-23.2z"/><path class="k" d="m431.9 298.3q-9.3 8.9-18.5 17.8c-1.9 1.7-3.8 3.5-6 4.8-2-8.2-3.4-16.7-5.6-24.8-1.9-7.4-1.4-15.1-2.8-22.5-0.7-3.6-1.7-6.4-3.8-9.1-1.9-2.4-2.9-5.6-6-7.1-0.7-0.3-1.6-0.5-2.3-0.9-1.9-1-3.4-3-5.5-2.9-0.4 0-0.8 0.1-1.1 0.3-0.2 0.2-0.4 0.5-0.5 0.7-0.5 1.4-0.5 2.9-0.5 4.4-0.1 3-0.3 6.7-1.8 9.3-1.3 2.6-2.6 4.7-3.5 7.6-2.1 6.7-3.8 13.7-3.5 20.7 0.2 4.7 2.9 7.1 4.4 11.6 1.6 4.7 2 9.8 2.9 14.7 2.2 10.9 7.5 21.1 15.2 29.1 1.2 1.4 2.6 2.7 4.4 3.2 13.4 4.1 24.2-13.2 31.5-21.5 7.5-8.6 14.5-20 18.1-30.8-3.1-3.4-6.5-6.6-10.2-9.4q-2.4 2.4-4.9 4.8z"/><path class="l" d="m344.4 338.4c-2.2-0.9-4.5-1.6-7-1.8-1.5-0.1-4.8-1.2-6.1-0.3-1.5 1-1.9 4.9-2.7 6.5-2.5 5-6.6 9-10.3 13-5.8 6.3-10.9 13.1-15.5 20.2-2.5 4.1-4.9 8.3-5.8 13-1.9 10.3 3.8 19.1 3.9 29.2 0.2 10.1-5.5 19.3-7.5 29.3-2.9 14.6 2.7 29.6 2.3 44.5-0.1 7.7-1.9 15.2-3.2 22.8-4.3 24.9-4.2 50.3-4.1 75.6q8.5-0.9 17-1.7c2-0.2 4.1-0.4 5.7-1.6 1.3-0.8 2.2-2.1 3-3.3 11-16.8 7.5-37.3 11.7-56.4q5-22.7 9.8-45.4c1.3-5.7 3.3-11.2 4.6-17 2.5-11.1 4-21.8 7.1-32.7 3.5-12.2 8-25.2 9.7-37.7 0.5-3.1 9.8-39.3 13.5-37-9.2-5.7-16.4-15.2-26.1-19.2z"/><path class="m" d="m396.3 213.3c2.9-2.6 4.9-6 3.5-10-1.5-4.2-6.4-6.8-10.7-5.9-3.2 0.6-5.9 2.8-9 3.5-5.7 1.4-11.7-2-17.4-0.6-2.4 0.6-4.6 2.1-6.1 4.2-1.5 2.2-2.2 4.8-3.8 7-2.4 3.5-6.6 5-10.4 6.5-3.1 1.2-8.6 2.4-10.4 5.5-1.2 2.2-1.7 4.8-1.4 7.3 0.2 1 0.4 2 0.4 3-0.2 2.3-2.2 4.1-3.6 6-3.1 3.8-4.3 9.4-2 13.7 1.5 3 4.4 5 7.3 6.5 2.1 1.1 4.3 2 6.6 2.3 7.8 0.8 15.6-1.5 21.2-7.2 4.5-4.6 7-11.1 6.9-17.5 0-3.2-0.5-6.9 1.8-9.1 1.8-1.8 3.9-2.1 4.5-4.9 0.4-2-0.7-4.2 0.4-6 0.8-1.5 2.3-2.4 3.9-2.8 2.3-0.6 4.6-0.2 6.9 0.3 4.3 0.9 7.7 1.4 11.1-1.5q0.1-0.2 0.3-0.3z"/><path class="i" d="m375.2 226.6c0-0.7-0.1-1.4-0.1-2.1 0-0.7 0.1-1.4-0.1-2.1-0.4-1.4-2.2-2.1-3.7-1.8-1.4 0.4-2.6 1.6-3.4 2.9-1.6 2.5-1.6 6.8 1.7 8.2 2.5 1 5.4-1.7 5.6-4.2q0.1-0.5 0-0.9z"/><path class="n" d="m339.8 377.1c-3.9-2.1-15.3-9.4-15.3-9.4-0.5-0.2-7.6 11-8.5 16.4-0.3 2.3-0.1 4.8 1.4 6.5 0.9 1 2.1 1.7 3.4 2 2.9 0.8 5.9 0 8.4-1.6 3.6-2.2 8.7-10.2 10.6-13.9z"/><path class="o" d="m382.4 232c0.3 1.1 1 2.2 2 2.7 1 0.6 2.3 0.6 3.2-0.2 0.3-0.3 0.5-0.7 0.7-1.1q0.4-1 0.5-2.1c0 0 0-0.1-0.1-0.1 0 0-0.1 0.1 0 0.1"/><path class="i" d="m287 115.5c0.2-3.5-0.4-7.3-0.6-10.7-0.1-1.7-0.2-3.4-0.5-5.1-0.1-0.4-0.2-0.9-0.5-1.3-0.3-0.5-1-0.9-1.6-1.2-1.4-0.6-3.1-1.2-4.3-0.3-0.4 0.3-0.8 0.7-1.1 1.1-1.7 2.6-2.6 5.6-3.2 8.6-0.4 1.9-0.2 6.6-2 7.7 1-0.6-0.6-8.6-3-7.9-0.6 0.2-0.9 0.8-1 1.4-0.1 0.6 0.1 1.2 0.2 1.8 0.6 4.5-2.1 8.8-1.9 13.3 0.2 3 1.6 5.7 2 8.7 0.5 3 0.8 6.4 0.5 9.4-0.1 2.3 0.1 9.4-2.4 10.7 3.2-1.7 7-2.1 10.5-1.2q1-6.4 1.9-12.9c0.5-2.8 0.9-5.6 2-8.3 1.4-3.6 4-6.9 4.7-10.9q0.3-1.4 0.3-2.9z"/><path class="p" d="m226.9 589.8q0.6 0.6 1.3 1c4.7 3.5 10.5 4.8 16 6.6 2.9 1 10.9 3.3 7.3 7.5-3.7 4.4-12.2 3.5-17.2 3-5.4-0.4-10.8-1.5-16.2-1.2-3.4 0.2-6.9 1-10.3 0.4-11.9-1.9-5.7-18.2-5.7-26.1 0-7.8-0.2-15.7 1.8-23.3 0.9-3.3 2.6-6.9 5.8-8.1 2.1-0.8 5.4-0.2 7.4 0.6 2.5 1 3 2.9 3.7 5.5 2.1 7.7 2.7 16.2 2.5 24.2-0.1 2-0.1 3.9 0.5 5.7 0.6 1.7 1.7 3.1 3.1 4.2z"/><path class="i" d="m189.1 218.3q0.2 0.7 0.4 1.4c0.6 1.8 0.5 3.9 0.7 5.8 0.3 3.3 0.5 6.8 1.1 10.1 0.8 4.2 11.7 23.3 15.8 23.2 4.6 0 8.1-18.5 7.4-22.9-1.1-6-4.3-17.9-4.3-18-1.3-3.6-3.6-7.1-7.2-8.9-3.7-1.9-9-1.5-13-1.1-0.7 0.1-1.4 0.2-1.9 0.6-0.9 0.8-0.8 2.3-0.5 3.6q0.7 3.1 1.5 6.2z"/><path class="q" d="m211.3 224.7q0.1-0.2 0.1-0.3c-0.7-2.6-1.2-4.4-1.2-4.4-5.7-15.6-21.8-11-20.7 0.2 0.1 1 0.3 3.4 0.6 6.1l1.9 1.4c6.3 4.7 14.6 3.1 19.3-3z"/><path class="i" d="m207.5 185.8c-3-1.2-8.2 3.2-11.5 4.1-3.1 1.1-8 2.5-9.9 5.2-4.2 5.6-2.2 14.1 1.6 19.9 0.6 0.9 2 3.4 2.7 4.3 5.8 7 14.9 6.6 19.2 4.9 5.2-1.9 7.6-6.8 7.7-13.2 0-1.1-0.4-4.8-0.6-5.9-0.7-7-5.9-18-9.2-19.3z"/><path class="r" d="m211.4 173.1c-0.6 0.2-1.3 0.6-1.9 1-3.4 2-7.6 1.9-11.5 2.8-5.8 1.2-11.6 4.1-14.7 9.4-3.8 6.5-1.3 14.7 0.6 21.4 0.1 0.5 0.3 0.9 0.5 1.3 2.4 4.5 5.6 0.7 6.1-2.6 0.2-2.2 0-4.3 0.3-6.4 0.8-4.8 5.4-8.8 10.2-8.5 4.6 0.3 10-0.9 12.3-5.3 1.8-3.5 2.2-7.8 0.9-11.5-0.2-0.6-0.5-1.1-0.9-1.4-0.6-0.4-1.2-0.4-1.9-0.2z"/><path class="r" d="m216.7 201.7q0 0.3-0.1 0.7c-0.1 0-0.5-0.1-0.6-0.3-2.3-3.2-2.7-7.5-4.9-10.8-0.9-1.4-2.5-1.4-3.3-2.5-1.2-1.6-0.4-4.8 1.2-5.9 1.4-1 3.7-0.7 4.8 0.7 0.3 0.4 0.5 0.9 0.7 1.5 1.2 3.2 1.5 6.7 1.7 10.1 0.1 2 0.6 4.4 0.5 6.5z"/><path class="i" d="m189.8 212.2c-0.5 0.9-1.2 1.6-2.1 2-0.9 0.4-2 0.4-2.8-0.1-1.3-0.8-2.5-3.5-2.7-5-0.1-1.4 0.5-2.9 1.6-3.8 4.4-3.3 7.9 3.3 6 6.9z"/><path class="i" d="m218 201.3q0.1 0 0.1 0.1c0 0.8 0.1 1.6 0 2.4-0.2 0.7-0.6 1.5-1.3 1.9-1.5 0.7-3.4-0.9-4.1-2.1-0.8-1.5-0.7-3.7 0.1-5.2 0.6-1.1 1.7-2 2.9-1.7 0.8 0.2 1.5 0.8 1.8 1.6 0.3 0.7 0.4 1.6 0.5 2.4q0 0.3 0 0.6z"/><path class="s" d="m237.2 241.6c-0.4-0.8-1.4-1.1-2.3-1.3q-4-0.9-7.9-2.1c-2.5-0.8-4.6-1.9-7.2-2.3-0.6-0.2-1.2-0.2-1.9-0.4-0.4-0.2-0.9-0.4-1.4-0.6q-1.2-0.6-2.5-1.2c0.4 2.8-0.1 5.9-1.9 8.2-2.3 3-6.7 4-10.3 3.5-3.5-0.5-6.7-2.4-8.3-5.6-0.9-1.8-1.9-3.6-2.5-5.5-1.3-0.3-4.4 0.6-5.3 0.8-2.8 0.6-5.5 1.3-8.2 2-4.2 1.1-8.4 2.2-12.5 3.4-4.5 3.6 0.2 9.9-0.5 12.7-1.8 8.2-0.8 107.7-0.8 107.7l67-1.1q0.6-9.1 1.2-18.1 1.2-19.6 2.2-39.2c0.7-12.5 1.3-25 1.6-37.6 0.1-2.4 0.1-4.8 0.1-7.1 0-2-0.2-3.8 0-5.7q0-0.2 0.1-0.4c0.4-2.9 1.5-5.7 1.6-8.7 0-0.4-0.1-1-0.3-1.4z"/><path class="t" d="m241 381.1q-0.5-8.4-1-16.9c-0.3-4.3-0.7-8.8-2.9-12.5-3-4.9-11.9-9.8-17-12.5-7.4-3.9-16.6-1.9-23.1 2.9-6.8 5.1-11.1 13-13.7 21-4.4 13.3-4.9 27.7-1.5 41.3 1.9 7.2 6 15.2 6.2 22.7 0.3 9.1-3.4 16.8 0.4 25.9 1.9 4.6 5.2 8.4 7.2 13 3.1 7 2.9 15 2.6 22.7q-1.9 45.6-3.7 91.2h33.5q0 0 0-0.1 3.9-26.3 7.1-52.8 3-24.3 5.4-48.6c3.2-32.5 2.3-64.6 0.5-97.3z"/><path class="p" d="m116.7 586.2c-0.1 0.7-0.2 1.3 0 1.9 0.5 1.7 3.1 3 4.2 4.5 2.2 2.7 5.8 3.6 9.2 4 3.1 0.4 9.7 0 11.5 3.4 0.3 0.6 0.4 1.3 0.3 2-0.7 8.7-15.7 6.6-21.3 6.2q-8-0.5-16.1-1.1c-7.7-0.5-14.6-3.7-11.8-12.8 0.5-1.8 1.3-3.5 2.1-5.3q3.1-6.6 6.2-13.2c1.7-3.6 3.4-7.4 6.5-10 3.7-3.2 12.7-4.6 14.7 1.4 0.7 2 0 4.3-0.7 6.3q-1.4 4-2.8 8c-0.5 1.3-1.6 3.1-2 4.7z"/><path class="k" d="m206.8 343.9c-0.2-1.6-0.4-3.3-1.5-4.5-0.8-0.9-2.1-1.4-3.2-2.2-3-2.4-1.7-3.7-6.7-4.5-3.7-0.5-7.6-0.5-11.4-0.1-6.6 0.9-13.6 3.3-18.3 8.3-8.2 8.9-12 21.3-13.2 33.1-1.7 15.9 0.4 32-1.5 47.8-1.2 9.3-3.7 18.4-5.2 27.7-0.9 5.3-1.5 10.6-3.9 15.4-1.7 3.3-4.1 6.1-6.2 9.1-9.5 13.4-9.5 29.6-14.8 44.6-6.2 17.5-17.3 40.7-24.3 57.8 1.1 0.5 2 0.8 2.5 1 2.6 1.1 5.2 2.1 7.8 3.2 5.1 2.1 10.1 4.5 15.1 7 11.5-20.1 28.6-45.6 40.5-65.3 11.8-19.5 23.8-36.5 30.4-58.8 11.4-38.4 17.8-79.5 13.9-119.6z"/><path class="l" d="m207.5 307.5q0.2-0.9 0.3-1.8c1.8-10.2 2.9-20.5 3.7-30.9q0.6-7.7 1.1-15.5c0.3-4.4 1-8.7 1.3-13.1 0.3-3.8 0.6-7.8 3.2-10.7q0.3 0 0.6 0c7.2-1.6 13.4-8.3 18.3-15.3 0.8-0.3 1.6-0.4 2.4-0.1 1.4 0.5 2.1 2.2 2.5 3.7 1 4.9 0 9.8 0.3 14.7 0.3 4.4 0.9 8.1 0.8 12.5-0.1 4.9 0.6 9.5-1.4 14.1-2.3 5.3-2.1 10.5-1.9 16.3 1 32.1 3.4 64.3 6.5 96.2 0.1 0.6-0.8 0.9-1.4 0.9-7.9 0.5-15.9-0.2-23.8-0.9-1.4-0.1-2.9-0.2-4.2-0.9-1.1-0.7-1.9-1.7-2.6-2.8-4.3-6.6-4.3-14.1-4.7-21.7q-0.8-13.4-1.5-26.8c-0.2-3.4-0.8-7-0.7-10.4 0.1-2.5 0.7-5 1.2-7.5z"/><path class="l" d="m156.5 304.7c-2.7 21.7-6.7 43.2-9.4 64.9-0.2 1.9-1.4 4.9 0.4 6.4 0.9 0.8 2.2 1 3.4 1.2 8.5 1.4 17.1 2.1 25.7 2.2 6.5 0.1 16 1.2 21.8-2.4 5.5-3.4 7-10.6 7.9-17 1.3-8.9 2.6-17.9 2.9-26.9 0.2-4.2 0.2-8.5-0.3-12.6-0.6-4.3-0.2-8.6-0.9-12.8-0.4-2.9-1.4-5.6-2.4-8.3-3.8-10.6-7-21.4-9.6-32.4-2.5-10.6-4-21.4-6-32.1q-0.1-0.1-0.2-0.2c0-0.1-0.1-0.1-0.3-0.1-3.5-0.1-6.7 0.8-10.1 1.1-3.2 0.2-6.5-0.1-9.6 0.3-3.2 0.3-6.5 1.5-8.5 4.1-3.1 4-3 10.2-2.8 15.1 0.2 4.5 1.1 9.1 0.9 13.6-0.3 12-1.4 24-2.9 35.9z"/><path class="i" d="m127.5 409c0.1-3.9-2-7.5-3.9-10.8-0.3-0.4-0.6-0.8-0.9-1.1-0.4-0.3-1-0.4-1.4-0.2-0.3 0.1-0.5 0.4-0.7 0.7-2.3 3.7-0.1 5.6 2.3 8.2 0.9 1 1.9 2.2 1.4 3.5-0.2 0.7-0.8 1.1-1.3 1.6-0.8 0.8-1.4 4 0.7 3 2.2-1 3.8-2.5 3.8-4.9z"/><path class="p" d="m127.9 420.5c0-2.9 0.4-6.8-1.7-9.2-1.9-2.1-5.3-2.7-8-2.9-7.3-0.6-10.1 3.9-11.2 10.5-0.3 1.7 2.5 2.1 2.7 0.3 0.4-2.2 0.7-4.7 2.3-6.4 1.9-1.9 4.7-1.9 7.1-1.5 2.6 0.3 5 1 5.8 3.7 0.5 1.7 0.3 4.1 0.3 5.9 0 1.7 2.7 1.3 2.7-0.4z"/><path class="i" d="m124.9 394.7c-0.5 1.8-0.9 3.6-1.1 5.5-0.4 2.8 0.4 5.3 0.7 8.1 0.2 2 0.6 4.7-1.2 6.3-0.8 0.7-2 1.1-3.2 1.1-3.3 0-6.5-2-7.9-5-1-2-1.3-4.3-1.4-6.5-0.4-6.2 3.1-11.5 5.6-16.9 0.7-1.5 1.6-3.8 3.2-4.5 2.1-1.1 4.2 0.4 5.2 2.3 1 2.2 1 4.7 0.6 7q-0.2 1.3-0.5 2.6z"/><path class="j" d="m153.7 481.9l-85.7-10.9c-1.1-0.1-1.9-1.1-1.8-2.2l6.8-53.6c0.2-1.1 1.2-1.9 2.2-1.8l85.8 10.9c1.1 0.1 1.9 1.1 1.8 2.2l-6.8 53.6c-0.2 1.1-1.2 1.9-2.3 1.8z"/><path class="l" d="m162 426.5l-46.3 17.2c-0.4 0.2-1 0.1-1.4-0.2l-40.6-28.2c-1.2-0.8-0.4-2.6 1.1-2.4l86.8 11c1.5 0.1 1.8 2 0.4 2.6z"/><path class="l" d="m116.6 442.8c0.1-1.7-2.5-2-2.6-0.4q-0.1 2.5-0.5 4.9c-0.3 1.6 2.3 1.9 2.5 0.3q0.4-2.4 0.6-4.8z"/><path class="l" d="m157 242.1c-9.5 7.2-15.7 18.6-17.6 30.4-0.5 3.2-0.7 6.5-2 9.6-1.1 2.8-3 5.2-4.7 7.7-4.8 7.2-8.1 15.3-9.6 23.8-1.7 9.6-1 19.6-3 29.2-3.3 16.4-7.7 31.8-9.2 48.6 1.5 0.4 18.1 3.4 17.8 4.4 2.5-7.2 5.2-14.3 7.5-21.6 1.9-5.7 4.4-10.6 6.7-16.2 3.6-8.4 2.2-18.6 7.1-26.3 2-2.9 4.7-5.3 6.8-8.2 6.4-8.8 5.5-21.2 10.7-30.8 2.9-5.4 7.6-9.6 10.3-15 4.9-9.7 2.3-20.7 0.5-30.8-1.4-7.9-5.6-13-14-9.2q-3.9 1.8-7.3 4.4z"/><path class="p" d="m212.8 315.3c0 1.6-1.3 2.9-2.9 2.9-1.5 0-2.8-1.3-2.8-2.9 0-1.5 1.3-2.8 2.8-2.8 1.6 0 2.9 1.3 2.9 2.8z"/><path class="p" d="m212.8 332.9c0 1.6-1.3 2.8-2.9 2.8-1.5 0-2.8-1.2-2.8-2.8 0-1.6 1.3-2.8 2.8-2.8 1.6 0 2.9 1.2 2.9 2.8z"/><path class="o" d="m200.3 212.5c0.6 2.9 3.3 5 6.2 4.5 2.9-0.4 4.9-3.2 4.6-6.2z"/><path class="l" d="m265.5 135.5c-3 8.5-3.3 19.5-4.8 28.2-0.5 2.8-1.1 5.7-2.2 8.3-1.6 3.5-4.3 6.5-6 9.9-3.4 6.6-3.2 14.6-5.8 21.5-4.1 11.2-14.9 18.6-20.4 29.2-5.7 10.8-5.9 24.5-4.5 37.3 0.5 4.6 1.3 9.1 2 13.2 2 10.8 21.1-9.9 24.1-13.1 10-10.6 19.1-22.7 22.4-37.1 1-4 1.4-8.1 2.2-12.2 0.9-4.3 2.2-8.5 3.3-12.8 4.7-17.8 9.1-37.3 8.7-55.8-0.1-5.1-0.4-10.1-0.5-15.2-6.2 0.2-12.4-0.4-18.5-1.4z"/><path class="j" d="m186.6 234.6c-0.2 1.1-0.4 4.6-0.4 5q-0.4 3.5-0.8 7-0.7 6.8-1.4 13.6-0.1 1.2-0.2 2.4l8.8 2.3-6.8 8.2 22.1 33.7c-1.8-8.7-3.5-17.4-5.4-26.1-1.8-8-4-15.9-6-23.9q-2.9-11.5-5.9-23-2 0-4 0.5 0 0 0 0.3z"/><path class="j" d="m220.3 246.1q-0.7-5.4-1.3-10.8c-1.8 0-3.4-0.7-5-1.4 0 1.2-0.3 4.8-0.4 5.3q-0.2 3-0.6 6c-0.6 3.8-1.5 7.5-2.2 11.2-1.4 7.7-1.3 15.6-1.7 23.5q-0.3 6.7-0.6 13.4-0.1 3.4-0.3 6.8 0 1.7-0.1 3.5c0 0.7 0.2 2.4-0.2 2.9l13.8-33.4c0 0-7.6-8.1-7.6-8.2 0.3 0.3 4.2-1.1 4.7-1.2q1.5-0.4 3-0.8c0.5-0.2 1.1-0.2 1.3-0.7 0.2-0.6-0.5-2.3-0.6-3q-1.2-6.6-2.2-13.1z"/><path class="f" d="m705.9 597.9q-0.7 1.6-1.8 3c-4.8 6-13.6 6.6-20.5 9.9-3.2 1.4-7.8 5.7-4.7 9.3 2.1 2.5 7.6 2.3 10.5 2.1q15.6-1.1 30.9-3.9c1-0.2 2-0.3 2.7-1 1.1-0.9 1.3-2.6 1.3-4.1q0.6-14.1 0.2-28.3c0 0-13-0.4-14.2 0.2-2.8 1.2-2.4 3.5-2.7 6.1-0.3 2.3-0.7 4.6-1.7 6.7z"/><path class="f" d="m785.3 609.9q-1.1 1.2-2.7 2.2c-4.6 2.8-9.4 5.1-14.4 6.9-3.8 1.4-8 2.8-10.3 6.2-5.1 7.6 5.4 9.5 10.5 9.1q15.6-1.1 31-3.8c0.9-0.2 1.9-0.4 2.6-1 1.1-1 1.3-2.6 1.3-4.1q0.6-14.2 0.2-28.4c0 0.1-13.3-0.5-14.4 0.2-2.1 1.5-1.1 4.5-1.3 6.7-0.2 2.5-1 4.4-2.5 6z"/><path class="t" d="m787.3 406c-1.2-10.8-4.6-22.8-8.8-32.7-0.5-1.4-1.6-4.9-3.3-5.2-1-0.2-4.3 2.4-5.3 2.8-2.1 1-4.4 1.7-6.6 2.4-5 1.5-10.2 2.4-15 4.3-3.8 1.4-10.2 3.7-11.9 7.5q-3.5 8-6.6 16.1c-1.8 4.9-4.5 10-5.4 15.2-0.8 4.4-0.8 8.5-2.3 13-6.1 18.1-16.9 34.6-20.9 53.2-1.7 7.9-2.1 16.1-2.3 24.2-1 30.7 0.3 63.4 2.5 94.1h26.4c0.8-5.8 1.6-13.6 2.5-19.4 0.9-6.4 1.8-12.9 3.9-19.1 1.2-3.5 2.7-6.9 3.7-10.6 2.9-10.8 0.3-23 5.5-32.9 1.3-2.5 3.1-4.7 4.4-7.1 2.3-3.9 3.5-8.4 4.5-12.9 3.1-13 5.1-26.6 11.4-38.5 3.6-6.7 8.4-9.1 13.5-14 4.1-3.9 7.2-11.8 8.5-17.1 1.7-7.7 2.4-15.5 1.6-23.3z"/><path class="i" d="m671.3 233.6c-1.3-3.6-1-7.4-0.6-11.1 0.5-5.2 0.4-10.5-0.4-15.6-0.2-1.5-0.4-2.9-1.1-4.2-1.1-1.9-4.2-3.8-6.3-2.3-0.7 0.6-1.2 1.4-1.6 2.3-1 1.9-2.1 4.2-2 6.4 0.1 2.3 0.8 4.7 0 6.8-0.7 1.9-1.8-0.4-2.1-1.5-0.2-0.9-1.4-3.4-2.7-2.8-1.5 0.6-0.2 5.1 0.2 6.2 1.3 4.8 3.9 9.1 4.6 14 0.4 2.5 0.2 5.1 0.5 7.7 0.4 4.4 2 8.6 2.8 12.9q0.7 4.6 1 9.2c0.1 1.7 0.1 3.3 0.3 4.9 0.3 3.1 1.1 6.2 1.9 9.2q1.2 4.9 2.5 9.9c0.8 3 1.8 5.7 2.8 8.5 2.2 6.2 4.9 10.9 8.9 15.9 3.8 4.8 6.4 11.8 13.5 11.7 3.5 0 7.9-1.3 11.3-2.3 4.2-1.2 8.2-3.2 11.8-5.8 5.8-4.3 10.3-10.4 12.5-17.4 0.7-2.3 1.1-4.9 0.5-7.2-1.8-6.4-9.2-7.2-14.7-6.4q-4.7 0.8-9.4 1.5c-3 0.4-7 3.4-8.8-0.4-4.1-8.7-9.9-16.6-14.4-25-3.6-6.7-5.9-13.9-9.1-20.7-0.7-1.4-1.3-2.9-1.9-4.4z"/><path class="k" d="m819.6 418.2c1.6-14.5-2.6-29.5-11.4-41.1-5.5-7.1-13.3-13.1-22.3-14.1-32.6-3.6-29.2 55.8-27.4 75.3 1.4 15.5 3.9 30.9 5 46.4 0.9 10.8-0.1 21.6 0 32.3 0.1 11 4.5 22.1 6.6 32.8 1 4.5 6.6 43.1 8.6 62.2h27.7c4.5-34.2 7.7-68.7 9.5-103.2 0.6-11.8 1.1-23.8 1.4-35.6 0.2-12.2-2.7-24.1-1-36.5 0.9-6.2 2.6-12.3 3.3-18.5z"/><path class="l" d="m743.4 274.5c-4.7-1.2-10.8 0-15.1 0.8-6.8 1.3-13.3 3.8-19.9 5.7q-0.6 0.2-1.1 0.4-0.7 0.2-1.3 0.5-0.1 1.2-0.2 2.3c1.3 12.5 3.4 24.8 5.3 37.2 13.2-5.3 24.7-14.9 32.3-27 1-1.6 2.1-4.1 2.9-6.9q0.1-1.1 0-2.2c-0.2-3.7-1.8-7.2-2.9-10.8z"/><path class="l" d="m732.6 390c7.1-1.8-8.1-59.6-9.2-65.1-1.5-7.5-3.1-15.1-3.5-22.7-0.3-4.9 0-10.2 2.9-14.2 1.9-2.6 4.7-4.4 7.5-6.1 14.2-8.9 26.5-20.5 44.2-21.3 1-0.1 2.1-0.1 3 0.3 1.9 0.7 2.9 2.8 3.7 4.6 4.2 9.1 5.8 19.1 10 28 4.3 9.1 7.3 18.2 9.8 28 5 20.1 9.7 40.5 11.8 61.1-2.6-5.4-31.2 0.9-37.4 1.6q-21.4 2.5-42.8 5.8z"/><path class="i" d="m783.2 267.7c3.2 3.6 4.8 9.3 5.9 14.3 2.7 13.3 5.5 26.7 5.3 40.3-0.2 8.1-1.4 16.1-2.6 24.1q-3.3 21.6-6.6 43.2-1.7 10.8-3.3 21.6c-0.6 3.6-0.4 9.9-3 12.9-1.4 1.6-3.7 2-5.9 2.3q-15.6 1.7-31.3 1.9c-1.5-5.4 2.8-11.1 8.1-13.1 5.2-2 11.1-1.4 16.7-0.7q-2.3-26.9-4.5-53.7c-1.8-12.7 0.9-25.9-1.9-38.4-2.8-12.4-3.6-25.2-4.7-38-0.4-4.1-0.6-8.7 1.7-12.1 2-3.1 5.6-4.7 9-6 3.5-1.5 7.3-3 11.1-2.2 2.4 0.5 4.4 1.8 6 3.6z"/><path class="l" d="m754.2 317.7c14.3-2.7 29-3.7 43.5-2.9-0.7-11-2.3-21.9-4.6-32.6-1.3-6.5-3.3-13.4-8.2-17.8-8.6-7.7-26.9-5.7-31.1 5.9-4.8 13.6-2.2 33.7 0.4 47.4z"/><path class="i" d="m752.1 257.3c0.4 2.6 2.7 14.2 2.9 16.6 0.4 4.1-4.7 24.8-8.5 25.8-4.2 1.1-12.4-15.1-12.9-19.4-0.6-5.9-0.8-17.7-0.8-17.8 1.2-15.9 17.4-15.9 19.3-5.2z"/><path class="u" d="m749.5 251.1c-0.9-0.9-2.3-1-4.3-1.1-2.5-0.1-5.1 0.2-7.2 1.7-3.3 2.4-5.6 6.7-5.2 10.8 0.2 1.7 0.2 3.1 0.4 4.5 0.2 1.5 0.7 2.9 1.8 4.3 1.3 1.9 3.1 3.4 4.9 4.9 0.9 0.8 1.8 1.6 3 1.9 1.9 0.5 3.9-0.4 5.7-1.4 9-4.9 3.3-15.7 1.9-23.3-0.2-1.1-0.5-1.8-1-2.3z"/><path class="i" d="m726.8 232c2.6-1.9 8.6 0.8 11.8 0.7 3.1 0.3 8.1 0.3 10.6 2.2 5.3 4.1 5.7 12.6 3.7 18.9-0.3 1.1-0.9 3.7-1.4 4.7-3.5 8.1-12 10.1-16.5 9.7-5.3-0.5-8.8-4.3-10.6-10.2-0.3-1.1-0.9-4.6-1-5.7-1.2-6.7 0.7-18.3 3.4-20.3z"/><path class="f" d="m721.2 219.5c2.4-1.6 5.7-2 8-0.3 2.5 1.8 3.6 4 7 3.9 3.2-0.2 5.4-1.6 8.7-0.3 5.4 2.1 8.7 8 9.3 13.5 0.5 4 0.3 9.3-0.1 13.3-0.2 0.3-0.8 0.6-1-0.4-0.4-1.9-0.4-4.3-1.2-6.1-0.3-1-1.2-1.9-2.3-1.9-0.9-0.1-1.9 0.4-2.6-0.2-0.3-0.3-0.4-0.8-0.6-1.2-0.6-2-2.5-3.7-4.6-4-4.9-0.8-9.4 1-14.3 1-8-0.1-14.6-10.7-7.3-16.6q0.4-0.4 1-0.7z"/><path class="f" d="m722.6 249.1c0 1 0.2 0.8 0.6 0.3 1.8-4.8 0.2-12.9 3.8-13.8 0.3-0.1 1-3.2 0.3-3-1.1 0.2-3.5 0.9-4 1.7-1.7 2.9-1.1 11-0.7 14.8z"/><path class="i" d="m750 249.3c-0.1 2 1.1 3.6 2.7 3.7 1.5 0 2.8-1.6 2.8-3.6 0.1-2.1-1.1-3.7-2.7-3.7-1.5-0.1-2.8 1.5-2.8 3.6z"/><path class="i" d="m720 248.6c0 2 1.2 3.7 2.8 3.7 1.5 0 2.8-1.6 2.8-3.6 0.1-2-1.1-3.7-2.7-3.7-1.5 0-2.8 1.6-2.9 3.6z"/><path class="o" d="m740.6 254.8c0.2 3-1.8 5.6-4.6 5.9-2.8 0.3-5.4-1.7-5.9-4.6z"/><path class="f" d="m505.3 553.6c2.8 4.3 4.9 8.4 4.1 14.1-1.1 8.4-7.9 14-9.8 22.2-0.1 0.7-0.2 1.5 0 2.3 0.3 1.5 1.9 2.7 3.3 3.1 8 2.1 14.9-9.6 19.4-14.1q8.5-8.5 17-17.1c1.5-1.5 1.3-4.2-0.5-6l-18.9-19.6-2.8-2.9c-4.6-4.8-11.5-5.3-15.3-1.2-3.3 3.6-3 9.8 0.3 14.6 1.1 1.6 2.2 3.1 3.2 4.6z"/><path class="f" d="m568.5 567.7h4.2v-92.9h-4.2z"/><path class="g" d="m607.4 587.2c0-13.7-24.3-19.5-36.4-19.5-14.5 0-36.4 5.3-36.4 19.5"/><path class="g" d="m570.6 590.8v-22.7"/><path class="f" d="m528.6 590.5c0 3.3 2.7 5.9 6 5.9 3.3 0 5.9-2.6 5.9-5.9 0-3.3-2.6-6-5.9-6-3.3 0-6 2.7-6 6z"/><path class="f" d="m564.7 590.5c0 3.3 2.7 5.9 6 5.9 3.3 0 5.9-2.6 5.9-5.9 0-3.3-2.6-6-5.9-6-3.3 0-6 2.7-6 6z"/><path class="f" d="m600.8 590.5c0 3.3 2.7 5.9 6 5.9 3.3 0 5.9-2.6 5.9-5.9 0-3.3-2.6-6-5.9-6-3.3 0-6 2.7-6 6z"/><path class="o" d="m574.7 443.6v-68.3c0-11.9 9.5-21.4 21.4-21.4h23.6c11.8 0 21.4 9.5 21.4 21.4v76.4c0 16.8-13.8 30.7-30.7 30.7h-35.3-41.6c-2 0-3.6-1.7-3.6-3.7 0-1.9 1.6-3.6 3.6-3.6h9.6c17.4 0 31.6-14.1 31.6-31.5z"/><path class="f" d="m493.2 586.9c-0.9 5.1-2.3 9.4-6.8 13-6.7 5.3-15.5 4.5-22.5 9.1-0.6 0.5-1.2 0.9-1.6 1.6-0.8 1.4-0.6 3.3 0.2 4.6 4.3 7.1 17.4 3.5 23.8 3.4q12-0.3 24-0.5c2.1 0 3.9-2.1 3.9-4.7v-27.2-4c0.1-6.7-4.5-11.9-10.2-11.5-4.8 0.3-8.9 4.9-9.9 10.7-0.3 1.9-0.6 3.8-0.9 5.5z"/><path class="i" d="m534.9 377.4c-4.6 4.5-10.1 7.7-16.9 7.2-5-0.4-9.6-3.1-14-5.7-9.2-5.4-15.1-14.8-20.8-23.5-8-12-18.2-22.9-23.4-36.5-2.6-6.7-4.4-12.4-3.9-19.7 0.5-7.2 2.3-14.4 0.7-21.5-0.5-2.4-3.2-9.7 0.3-11 3.2-1.3 6.2 4 6.9 6.2 0.8 2.8 0.8 5.7 1 8.5 1 12.2 6.1 29 16.2 36.9 3.2 2.5 7.3 3.8 10.7 6.1 6.8 4.4 10.6 12.2 16.2 18.1 1.3 1.4 3 2.8 4.9 3 5.8 0.6 6.6-6.2 8.8-9.7 4.4-6.7 15.7-14.7 23.9-12.9 5.7 1.3 10.3 6.3 11.1 12.1 0.3 2.4-0.1 5-0.4 7.4-0.3 2.5-0.7 4.9-1.4 7.2-1.5 4.6-4.5 8.5-7.5 12.3-3.7 4.7-7.6 10.9-12.4 15.5z"/><path class="v" d="m543.4 404.1q0-0.2 0.1-0.3z"/><path class="v" d="m559.5 327.5l-0.3 1.5z"/><path class="v" d="m543.7 403q-0.1 0.4-0.2 0.8l0.2-1.1q0 0.1 0 0.3z"/><path class="s" d="m560.9 324c-0.1 4.8-0.5 9.5-0.5 12.2 0 3.3-0.1 6.6-0.8 9.8-0.7 2.8-1.9 5.4-3.2 8-3.8 7.9-8.3 16.4-14.1 23.1-2.5-3.4-5.6-6.9-7.8-10.6-3.4-5.7-6.7-11.4-10-17.1-1.8-3.2-7.3-9-6.3-12.5 0.7-2.5 9.4-8.8 11.6-11.5 4.9-6.2 15.2-17.3 23.8-17.9 6.4-0.5 7.4 8.2 7.3 16.5z"/><path class="j" d="m455.5 458.7c0-4.3 1.7-8.7 4.6-12 6.1-6.8 16-8.3 25.1-9.3q18.4-2.2 36.9-4.4c21-2.6 43.6-4.8 62.3 5.1 12.8 6.8 17.2 22.6 4.9 32.6-6.9 5.5-16 7.3-24.7 8.8q-18.6 3.3-37.3 6.5c-10.9 2-23.7 6-33.8-0.8-2.7-1.8-5-4.2-8-5.4-8.5-3.5-24.1-5.3-28.5-14.6-1-2-1.5-4.2-1.5-6.5z"/><path class="j" d="m472.1 439.8c3.7-0.9 7.6-1.2 11.9-1.2 11.5 0.1 19.9 11.8 13.9 22.6-1.3 2.3-3.3 4.4-3.7 7.1-0.4 2.4 0.6 4.8 1.5 7.1 10.1 24.7 25.6 51.3 28.4 77.9-7.3 3.6-29 5.9-33.2-1.6q-5.7-9.9-11.3-19.7c-2.4-4.2-4.8-8.4-7.7-12.2-3.7-4.7-8.1-8.7-11.7-13.3-10.2-13.2-13.4-31.4-8.3-47.2 3.6-11.4 10.8-17.2 20.2-19.5z"/><path class="l" d="m502.3 467.1c14.1-19.6 44-16.8 55.4-39.7 0.4-0.7 0.8-1.5 1.3-2.1 1.7-2 4.8-2.1 7.5-2.1 15.4 0 30.6-2.3 45.7-4.9 8.9-1.5 8.8-0.1 12 8.2 2.4 6.2 4.6 12.6 5.2 19.3 0.8 9.1-1.7 19-8.5 25.2-3.7 3.3-8.4 5.3-13.1 7.1-22.4 9-45.3 16.6-68.6 22.8-4.4 1.2-8.8 2.3-13.3 2.3-8.7-0.1-17.2-4.7-21.9-12-6.7-10.3-6.1-17.9-1.7-24.1z"/><path class="s" d="m544.1 314.9c1.4-2 3.1-3.9 5.4-5.7 7.6-5.7 18.4-5.2 27.3-5.4 9.4-0.3 19.5 0.4 28.3 3.9 9 3.7 10.8 7.5 11.1 16.4 0.4 11.8 3.9 23.7 5.2 35.5 1.4 12.5 2.1 25.1 2 37.7q-0.1 10.1-0.8 20.1c-0.6 7.5-1.2 7.5-8.6 8.5-17.1 2.4-40 7.4-57.1 2.6-0.9-30.5-11.1-59.8-15.4-90-1.3-8.9-1.7-17 2.6-23.6z"/><path class="i" d="m577.8 323.8c2.6-1 4.9-2.7 6.6-4.9 7-9.1 0.3-15.3-0.1-24.5-0.3-6.7 4.3-13.5 2.2-19.8-0.4-1.3-1.7-2.6-2.8-2.1-0.5 0.3-0.7 0.7-1 1-5.9 8.9-13.7 8.2-23.8 10 1.4-0.3 1.7 21.8 1.4 23.4-0.4 1.7-0.8 3.3-0.9 5.1-0.3 5.7 4.1 11.2 9.7 12.5 2.9 0.8 5.9 0.4 8.7-0.7z"/><path class="w" d="m584.4 288.7l-22.2 1 1.8 16.4c7.4 4 24.5 2.8 20.4-5.3z"/><path class="i" d="m567.3 298c3 0.2 5.8-1.1 8.5-3.4 2.4-2 4.3-4.5 6.5-6.6 1.4-1.2 2.8-2.4 3.8-4 1.4-2 1.8-4.5 2.3-6.9 0.5-3 1.4-5.8 0.7-8.9-0.4-1.7-1.2-3.3-2.1-4.8q-2-3.4-4.2-6.5c-3.1-4.3-8.1-7.9-13.6-5.8-2.5 0.9-4.6 3-5.9 5.5-1.6 3.2-1.8 7-3.3 10.4-0.5 1.1-1.1 2.1-1.6 3.2-2.2 4.5-4 10.2-2.9 15.2 1 4.3 3.2 8.4 7 10.8 1.6 1.1 3.2 1.6 4.8 1.8z"/><path fill-rule="evenodd" class="f" d="m593.1 278.6c-0.9 2.1 0.2 4.7-0.7 6.9-1.4 3.5-6.6 3.8-9.2 6.3-2.9 2.7-3.8 6.6-7.3 9.1-4.8 3.3-11.9 2.7-16.9 0.3-2.6-1.2-4.9-3.1-6.1-5.8-1.6-3.4-0.7-8 0.1-11.5q0.8-3.2 1.6-6.3c0.1-0.5 0.4-1.2 1-1.2 0.9 0 0.6 1.1 1.3 1.2 1.7 0.4 3.7-0.1 5.4-0.2 2.1 0 3.9-0.1 5.9 0.8 1.8 0.9 3.4 2.3 4.7 3.8 0.6 0.7 1.3 1.6 2.3 1.8 3.2 0.9 3.5-2.6 4.4-4.6 2.5-5.4 0.1-9.4-4.8-12-2.5-1.3-5.2-2.2-7.8-3.3-2.3-0.9-6.2-2-7.1-4.6-0.3-1.1-0.2-2.2 0.2-3.3 0.8-2.6 2.8-4.7 5.2-6.1 2.3-1.3 5.1-1.8 7.8-1.9 3.4-0.1 6.9 0.6 9.9 2.3 2.9 1.6 5.3 4.4 6.3 7.7 0.9 3.2 0.9 5 4.2 6.3 9.8 3.8 1.6 9.3-0.4 14.3zm-33.7 10.9c1.4 0.3 1.6-0.2 2.9-0.7 2.2-0.8 2.7 1.3 4.4 2.1 1.1 0.6 2.6 0.6 3.5-0.2 0.7-0.7 1-1.7 0.9-2.6-0.2-2.1-2-3.8-3.6-5.1-2.5-2-6.3-2-8.8 0-1.5 1.1-2.4 3.1-1.8 4.8q0.1 0.4 0.4 0.7c0.5 0.6 1.3 0.9 2.1 1z"/><path class="i" d="m583 278.4q-0.4 0.4-0.8 0.8c-1 1.5-2.1 3.9-2.3 5.7 0.9 0.4 2.1 0.8 3.1 0.6 0.8-0.1 1.5-0.5 2.1-1 1.5-1.3 2.5-3.1 2.7-5 0.1-0.7 0.1-1.3-0.3-1.9-0.5-0.7-1.5-0.8-2.4-0.6-0.8 0.2-1.5 0.7-2.1 1.4z"/><path class="o" d="m569.3 287.9c0 0-3 1.9-6.5 0.5-3.9-1.6-4.2-4.9-4.2-4.9"/><path class="i" d="m625.6 409q2-0.2 4.1-0.3c-4.3-5.4-9.8-9.8-14.1-15.3-4.7-6.2-4.2-12.3-6.4-19.3-1.9-5.7-5.5-10.8-7.3-16.6-4.4-14.2 0.9-39.7 21.5-33.4 5.8 1.7 10.4 6.4 13.4 11.7 3 5.3 4.5 11.3 6.1 17.2q4.9 18.8 9.9 37.6c1.4 5.7 2.5 11.4 3.9 17 1.9 7.8 6.7 16.6-4.4 19.8-6.7 1.8-13.7 2.3-20.6 2.8-13 0.8-26 2.2-39 2.5-7.9 0.3-15.4-2.2-23.2-3.1-6.8-0.8-13.3 1.6-19.9 0.5-2.8-0.5-5.8-2.5-5.6-5.3 0.1-1.6 1.2-3 2.4-4 5-4.1 12.2-4.1 18.4-2.5 1.4 0.3 2.8 0.8 4.3 0.7 1.5-0.2 2.9-0.8 4.3-1.4 9-3.8 17.1-0.8 26-2.2 8.9-1.4 17.2-5.4 26.2-6.4z"/><path class="s" d="m593.4 350.6q-0.2-0.8-0.5-1.5c-2-6.9-3.7-14.2-2.5-21.3 1.2-7.2 5.9-14.1 12.8-16.1 4.5-1.2 9.4-0.3 13.7 1.5 10.7 4.4 18.4 13.6 23.4 23.7 2.4 4.8 5.5 10.5 3 14.4-3.2 4.7-41.1 22.7-39.5 25.9-4.2-8.6-7.6-17.5-10.4-26.6z"/><path class="l" d="m503.1 468c-8.8 16.5-4.7 36.8-6.4 54.6q-3.3 34.1-8.5 67.8c11.4-0.9 23 0 34.1 2.7 6.3-21.7 12.7-43.6 15.1-66.2 0.7-6.8 1-13.9 3.1-20.4 2.6-8.1 7.6-15.2 9.3-23.4 2.1-10.5-6.9-27.6-18.2-28.9-9.6-1.1-23.8 5-28.5 13.8z"/><path class="o" d="m395.2 426h107.2v-0.7c0-1.7-1.4-3-3.1-3h-104.1z"/><path class="x" d="m376.8 422.3h107.1l-19.1-56.6c-0.7-1.9-2.6-3.2-4.8-3.2h-96.5c-3.4 0-5.8 3-4.8 6z"/><path class="y" d="m376.8 426h107.6v-3.7h-107.6z"/><path fill-rule="evenodd" class="y" d="m418.7 386.5q0.2 0 0.4 0 0.2-0.1 0.4-0.1c2.6 0 4.9 2 5 4.4 0.2 2.4-1.9 4.1-4.4 4.3-2.4 0.2-4.6-1.1-5-3.4-0.3-2.3 1.2-4.6 3.6-5.2zm1.1 7.2c2.1-0.1 4.1-1.8 2.7-4.2-0.6-1-1.8-1.6-3-1.6q-0.1-0.1-0.2-0.1-0.1 0.1-0.2 0.1c-3.5 0.9-3.2 6 0.7 5.8z"/><path class="z" d="m670.7 331.6q0 0 0-0.1c-0.2-3.8 2.4-7.4 1.7-11.1-0.1-0.4-0.3-0.8-0.6-1-0.6-0.4-1.3 0.2-1.7 0.7-2.6 3.2-2.4 7.5-1.9 11.4 0.5 4.2-1.5 7.6-2.2 11.7-0.4 2.8 0.1 5.4-0.5 8.2-0.7 3.2-1.1 6.2-0.1 9.5 0.5 1.3 1.1 2.7 1 4.2-0.2 1.7-1.4 3.2-2.1 4.8-1.8 4.4 0.7 9.9-1.8 13.9-0.2 0.4-0.6 0.8-1.1 0.8-0.6 0-0.9-0.7-1.2-1.3-2.8-7.6-5.5-16.2-4.4-24.5 0.2-1.8 0.7-3.5 0.8-5.3 0.1-1.7-0.1-3.4-0.2-5q-0.6-5.9-1.3-11.8c0-0.7-0.1-1.5-0.5-2.1-0.5-0.6-1.3-0.9-1.9-0.5-0.4 0.3-0.6 0.9-0.7 1.4-0.7 3.9 0.8 8 0.5 12-0.2 2.3-1 4.4-1.4 6.7-1 4.9 0.6 11.2 1.5 16.1 0.7 3.5 1 7 1.5 10.5 0.2 1.9 1 3.7 1.2 5.6 0.2 1.4-1 6.1-2.4 2.8-0.6-1.4-0.8-2.9-0.7-4.4 0-0.7 0.2-1.5 0.1-2.3-0.1-0.8-0.5-1.6-1.2-1.9-0.7-0.3-1.6 0-2.4-0.3-0.8-0.5-1-1.5-1.1-2.4-0.3-2.8-0.7-5.7 0.3-8.3 0.3-0.8 0.7-1.6 0.9-2.5 0.4-2.1-1.3-3.1-1.7-4.9-0.4-1.7 0.9-3.1 1.2-4.8 0.1-1.2-0.6-2.5-1.7-3-0.4-0.2-0.8-0.3-1-0.6-0.3-0.4-0.2-1 0-1.5q0.5-1.5 1.1-2.9c1.2-2.8-2.2-5-4.2-2.9-0.9 1-0.9 2.5-0.9 3.8 0.4 8 0.7 16 2.3 23.9 1.1 5.4 2.8 10.7 5.4 15.5 1.3 2.3 3 4.3 4.1 6.6 1.6 3.3 2.6 7.9 7.4 6.9 2.7-0.5 4.7-2.7 6.5-4.8 2.5-3.2 4.9-7.5 3.1-11.2-0.5-1-1.3-1.9-1.6-2.9-0.3-0.9-0.3-1.8-0.3-2.7q0.2-4.9 1.2-9.7c0.8-3.6 2.4-7.9 1.3-11.6-1-3.2-2-5.7-1.2-9.2 0.9-3.6 3.6-6.7 3.5-10.4-0.1-3.1-2.3-5.9-2.6-9.1z"/><path class="A" d="m671.1 405.6c4.6-3.8 7.3-10.6 6.6-16.2-0.4-2.9-1.3-6.3 0.6-8.5 0.7-0.7 1.6-1.1 2.2-1.9 1.5-1.9 0.6-4.6-0.4-6.7-1.9-3.8-2.9-7.5-0.3-11.1 2-2.8 5.4-4.7 6.1-8.3 1-4.8-3.9-10-1.5-14.2 0.7-1.2 1.8-2 2.7-3.1 1.5-1.9 1.9-4.6 1.1-6.9-0.6-1.5-2-3.5-3.6-4-2.2-0.6-2.2 0.4-3 2.6-1.4 4-2 8.3-1.7 12.5 0.3 6.4-2.2 13.5-3.2 19.8-0.6 3.4-1.2 6.8-1.9 10.2-0.4 2.1-0.7 4.3-1.4 6.4-0.3 1-1.8 3-1.8 4-0.7-8.3 3.5-16.1 4.6-24.3 0.1-0.7 0.1-1.5-0.2-2.2-0.3-0.5-0.8-0.8-1.1-1.3-1.7-2.3 0.5-7.7 0.9-10.4 0.6-4.7 0.8-9.4 1.1-14.1 0.4-5.7 1.2-11.2 0.6-17-0.1-0.2-0.1-0.5-0.3-0.6-0.2-0.2-0.6-0.1-0.8 0.1-0.3 0.3-0.3 0.6-0.4 0.9-1.3 8.4-1.7 16.9-3 25.3-1.4 9.1-2.4 18.3-3.5 27.5-1 8.8-3.1 17.6-4.2 26.5-0.2 2-0.9 4.4-2.8 4.6-1.7 0.2-3-1.6-3.3-3.3-0.5-4.7 3.4-8.5 5.2-12.8 1.2-3.1 1.3-6.7 0.6-10-0.7-3.4-2-7.3 0-10.1 0.9-1.2 2.1-1.9 2.8-3.2 0.5-0.9 0.6-2 0.6-3q0.2-4.9-0.3-9.8c-0.3-2.8-1.3-5.9-1.1-8.7 0.5-5.6 2-11 1.7-16.6-0.3-4.9-4.1 2.7-4.2 4.6-0.2 2.6 0.3 5.2-0.1 7.8-0.4 2.8-1.8 5.7-1.4 8.5 0.1 0.4 0.2 0.8 0.1 1.2-0.2 0.3-0.6 0.6-0.9 0.4-0.2-0.1-0.3-0.3-0.3-0.4-2-4.9 2.6-13.6-1.4-17.7-3.2 4-2.5 13.1-2.3 18 0.6 12.4 2.7 24.9 0.3 37.3-0.1 0.9-0.4 1.8-1 2.4-1.2 1-3 0.4-4-0.7-1-1.2-1.3-2.7-1.7-4.1-0.4-1.5-0.9-3-2.1-3.9-1.3 1.3-1.6 3.3-1.3 5.1 0.2 1.7 0.9 3.4 1.4 5.1 1 2.9 1.4 6 1.4 9.1-0.1 3.2-0.6 6.6 0.5 9.6 2 5 10.7 9.7 15.8 7.7q1.9-0.8 3.6-2.1z"/><path class="j" d="m641.3 390.2l42.1 0.7-11.1 35.9-24 0.3z"/><path class="o" d="m866.1 434.7h-832.6v-8.5h832.6z"/><path class="o" d="m789.1 653.4h-8.1v-222.9h8.1z"/><path class="o" d="m706.3 651.6h-8.1l52.4-221.1h8.1z"/><path class="o" d="m185.3 651.6h8.1l-52.4-221.1h-8.1z"/><path class="o" d="m112.3 653.4h-8.1v-222.9h8.1z"/><path class="B" d="m99.9 607.7q-0.3 1.9-0.5 3.9c-0.4 4.6-1.2 9.9-5.2 12.3-3.6 2.1-8.4 0.7-11.3-2.3-2.9-2.9-4.3-7.1-5-11.2-2.1-10.5-1.2-21.5 2.5-31.6 2.3-6.2 8.8-15.7 8.1-22.4-0.8-7.1-9.2-11.2-9.5-18.8-0.4-8.5 7.2-15.6 11.6-22.1 1.6-2.4 3-5 3.1-7.8 0.3-9.9-14.1-15-15-24.9-1.2-12.2 15.7-17.1 15.8-28.7 0.1-6.3-5.4-12.9-4.9-20.4 0.5-7.3 3.4-14.6 8.5-20 2-2.2 4.9-4.2 7.7-3.2 2.8 0.9 3.9 4.3 3.9 7.2-0.1 2.9-0.9 5.9-0.3 8.8 1.8 8.6 7.8 11.7 7 21.5-0.4 5.5-2.4 11.3-4.8 16.2-8.9 17.5-6.3 15.4 4.3 30.5 5.6 8 5.6 19.4 0 27.4-3.2 4.6-8.2 8.5-8.8 14.1-0.3 2.6 0.5 5.1 1.5 7.5 1.2 2.9 2.7 5.7 3.2 8.7 0.8 4.3-0.3 8.6-1.5 12.8-4 14.3-8.6 28-10.4 42.5z"/><path class="C" d="m64.6 594q-1.2-8.1-2.4-16.3c-0.7-4.8-1.4-9.7-3.5-14-2-3.9-4.9-7.2-6.7-11.2-3.8-8.5-1.2-18.4 1.6-27.4 1.9-6.2 4-12.8 2.1-19-1-3.3-3-6.1-4.7-9-3.5-6-9.9-20.2-5.9-27.2 6.9-11.9 13.5-0.6 14 7.6 0.4 7.4 3.3 14.5 8.2 20 2.8 3.1 6.3 5.9 7.8 9.8 4.1 10.3-7.5 20.9-6.5 31.9 0.7 8.9 8.9 15.1 12.3 23.3 6.1 15.2 10.3 37.3 6.1 53.3-0.7 2.8-1.8 5.7-4.2 7.3-3.9 2.5-9.4 0.5-12.1-3.1-2.8-3.7-3.5-8.5-4.2-13q-0.9-6.5-1.9-13z"/><path class="l" d="m89.4 667.2c-15 0-27.7-11.2-29.5-26.1l-4.6-37.4h67.5l-3.9 36.8c-1.6 15.2-14.3 26.7-29.5 26.7z"/><path class="C" d="m100.9 588.8c0.5-5.6 0-11.7 3-16.5 3.9-6.5 13.1-9.3 14.7-16.6 1.6-7.2-5.3-14.9-2.1-21.5 2.7-5.5 11-6.6 13.5-12.2 2.3-5-1.1-10.5-2-15.8-1.1-6.5 1.9-13.5 7.4-17.2 1.1-0.7 2.3-1.3 3.6-1.3 3.6 0.2 4.9 5 3.7 8.3-1.3 3.3-4 6-5.1 9.3-2.9 9 6.3 20.6-0.3 27.4-1.9 2-4.8 2.9-6.9 4.8-6.8 6.4 0 18.6-4.1 27-2.7 5.7-9.7 8.3-12.6 13.8-1.9 3.6-1.9 7.8-2.5 11.8-0.7 4.4-2.4 8.7-5.7 11.6-3.4 3.1-8.3 4.5-9.2-0.9-0.4-2.8 4.2-8.5 4.6-12z"/><path class="D" d="m64.7 627.7c7.6-1.7 15.2-3.4 22.6-5.4q17.2-4.8 34.2-9.9 0.2-0.1 0.4-0.2l0.9-8.5h-67.5l3.2 25.5q3.1-0.7 6.2-1.5z"/><path class="l" d="m126.8 607.8h-74.2l-4-16.2h80.9z"/><path class="B" d="m802.5 578.6c-2.2-8.7-5.2-17.8-2.8-26.5 1.7-5.8 5.6-10.7 7.2-16.4 2.6-9.4-1.3-19.5 0.4-29.1 1.6-9.2 8.1-16.6 11.5-25.2 4.6-11.3 3.9-24.2 7.7-35.7 1.3-3.7 3.2-7.5 6.5-9.6 3.3-2.1 8.3-1.9 10.5 1.4 1.3 1.8 1.4 4.2 1.3 6.5-1 24-20.5 45.6-16.9 69.4 1 6.8 3.9 13.7 2.2 20.3-1.7 6.6-7.5 11.3-10.3 17.4-3.1 6.8-2.3 14.6-1.3 22 1 7.3 2.1 15.1-0.6 22-1.3 3.6-12.6 16-16.5 9.6-0.5-0.8 3-9.9 3.1-11.6 0.3-4.9-0.7-9.8-2-14.5z"/><path class="C" d="m793.6 589.1q0-0.3 0-0.6c-0.3-5.7-4.3-10.6-8.6-14.4-7.2-6.3-13.9-22.6-15.2-32.1-0.9-6.6 0.3-13.2-0.2-19.8-0.8-10.1-5.4-19.6-8.4-29.3-2.8-9-4.3-18.3-4.5-27.7-0.1-3.7 0.3-8.1 3.5-10 2.7-1.5 6.2-0.6 8.4 1.4 2.3 2.1 3.5 5 4.4 8 4.3 14.5 2.7 30.6 9 44.4 2.8 6.3 7.3 12 8.6 18.8 1.4 7.4-1.2 15.2 0.7 22.5 3.1 12.3 15 19.2 16 32.4 0.1 1.5 0.1 3 0.5 4.5 0.7 2.2 2.2 3.9 3.5 5.9 3.3 4.9 8.5 15.9 3.2 20.3-9.7 7.9-21.2-8.9-21.4-17.3 0-2.3 0.5-4.7 0.5-7z"/><path class="C" d="m824.1 572.4c0.9-3.3 1.9-6.6 3.9-9.4 3.7-5.2 10.5-8.2 12.4-14.2 0.8-2.5 0.6-5.2 0.9-7.8 0.6-4.7 2.9-9.2 6.8-11.9 3.9-2.6 9.3-3.1 13.3-0.7 5.1 3.1 6.7 9.8 7.7 15.8 3.1 18.6 4.6 38.7-4.4 55.2-0.5 0.8-0.9 1.6-1.7 2-2.1 1.3-4.7-0.8-5.8-3-5.6-10.5 1.4-24.4-4.1-34.9-0.5-0.9-1.1-1.7-2.1-1.8-0.7 0-1.4 0.5-1.8 1.1-2.8 3.1-3.2 7.8-5.9 11-2.5 2.8-6.6 3.9-9.2 6.6-2.1 2.3-3 5.5-3.8 8.6-1.5 5.5-3.1 27.5-11.2 18-7.1-8.4 2.4-25.9 5-34.6z"/><path class="l" d="m811.2 670.1h-1.1c-15.8 0-29.2-11.8-31.1-27.6l-5-40.7h72.6l-4.2 40.2c-1.7 16-15.1 28.1-31.2 28.1z"/><path class="E" d="m808.4 621.7q18.5-5 36.8-10.6 0.2-0.1 0.5-0.2l0.9-9.1h-72.6l3.4 27.4c10.3-2.5 20.9-4.6 31-7.5z"/><path class="l" d="m851 606.2h-79.9l-4.4-17.5h87.2z"/><g clip-path="url(#cp2)"><path class="B" d="m691.5 607.7c0.4-3 1.5-5.7 3.8-7.1 3.4-2 7.9-0.4 11.9-1.1 11-2.1 11-17.5 10.7-26q-0.2-8.1-0.7-16.2c-0.1-1.5-0.2-3-1-4.2-1.3-2.2-4.4-2.8-6.8-2.1-4.9 1.4-7.6 6.6-8.5 11.5-0.8 5-0.4 10.2-1.7 15-0.2 0.9-0.5 1.9-1.1 2.6-0.6 0.9-1.4 1.6-2.4 2.1-1.4 0.7-3.2 0.8-4.5-0.1-1.5-0.9-1.3-2.2-1.3-3.7 0.1-1.7-0.2-3.6-0.4-5.4q-0.7-6.1-1.3-12.2c-0.7-8-1.4-16-2.2-24-0.4-3.7-0.8-7.5-2.6-10.8-8-14.2-20-1.7-21.1 8.7-2.6 23.6 9.7 45.8 8.7 69.3 0 0.9-0.1 2-0.6 2.9-1.8 3.6-7.7 3-10.4 0.9-4.3-3.4-2.8-10.6-2.8-14.9 0-3.6-1.1-7.6-4.6-9.2-3.9-1.9-8.9 0.3-11.2 3.8-2.8 4.5-2.5 12.2-2.1 17.2 0.3 3.6 1.2 7.2 3.3 10.3 2.1 3.1 5.7 5.4 9.6 5.7 2.3 0.1 4.9-0.4 6.7 1 2.1 1.7 1.3 4.7 1.4 7.3 0.2 5 4.5 9.4 9.5 11.5 5.1 2.1 10.7 2.5 16.3 2.8 4.7-7.5 5-16.2 5.2-24.6 0.1-2.8-0.3-7.2 0.2-11z"/><path class="F" d="m676.6 520.5c5.6 39.1 10.5 79 3.6 117.9"/><path class="F" d="m671.2 520.2c-1.6 7.3-3.2 14.7-3.2 22.1 0.1 14.2 6.1 27.7 8.4 41.7 2.6 15.7 0.7 31.6-1.3 47.4"/><path class="F" d="m683.4 589.3c6.8-1 15-1.9 19.3-7.4 0.6-0.8 1.1-1.6 1.4-2.5 1.1-3.7 0.6-7.9 0.6-11.8-0.1-3.6 0-10 0-14.7"/><path class="F" d="m677.3 615.3c-6.2 1-12.9 1.9-18.2-1.1-3.2-1.8-5.4-4.9-6.6-8.3-1.2-3.3-1.4-6.8-1.3-10.3 0-3.8 0.3-7.5 0.9-11.3"/><path class="F" d="m683.5 595.6c7.8-1.2 15.4-3.2 22.7-5.9 1.5-0.6 3.1-1.2 4.2-2.3 1.2-1.2 1.8-2.8 2.3-4.4 1-3.5 1.5-27.8 0.3-33.7"/></g><path class="s" d="m654.5 630.3l45.8-0.9-2.5 20.4c-1.2 10.1-9.8 17.8-20 17.8-9.9-0.1-18.3-7.2-19.9-16.9z"/><path class="G" d="m608.7 159c0 15.6-12.7 28.3-28.3 28.3-15.7 0-28.4-12.7-28.4-28.3 0-15.7 12.7-28.4 28.4-28.4 15.6 0 28.3 12.7 28.3 28.4z"/><path class="H" d="m579 141.4c0 1.4 1.4 21.6 1.4 21.6l16.2-10.8"/><path class="H" d="m489.9 402.1l15.2-9.2h73.7c7.5 0 13.6-6.2 13.6-13.8v-11.9c0-7.6-6.1-13.7-13.6-13.7h-75.2c-7.5 0-13.7 6.1-13.7 13.7z"/><path class="o" d="m529.7 373.2c0 1.6-1.3 2.9-2.9 2.9-1.6 0-2.9-1.3-2.9-2.9 0-1.6 1.3-2.9 2.9-2.9 1.6 0 2.9 1.3 2.9 2.9z"/><path class="o" d="m546.9 373.2c0 1.6-1.3 2.9-2.8 2.9-1.6 0-2.9-1.3-2.9-2.9 0-1.6 1.3-2.9 2.9-2.9 1.5 0 2.8 1.3 2.8 2.9z"/><path class="o" d="m564.2 373.2c0 1.6-1.3 2.9-2.9 2.9-1.6 0-2.9-1.3-2.9-2.9 0-1.6 1.3-2.9 2.9-2.9 1.6 0 2.9 1.3 2.9 2.9z"/><path class="H" d="m678.4 209.6l15.1-9.2h73.7c7.5 0 13.6-6.2 13.6-13.7v-12c0-7.5-6.1-13.7-13.6-13.7h-75.2c-7.5 0-13.6 6.2-13.6 13.7z"/><path class="o" d="m718.1 180.7c0 1.6-1.3 2.9-2.9 2.9-1.6 0-2.9-1.3-2.9-2.9 0-1.6 1.3-2.9 2.9-2.9 1.6 0 2.9 1.3 2.9 2.9z"/><path class="o" d="m735.4 180.7c0 1.6-1.3 2.9-2.9 2.9-1.6 0-2.9-1.3-2.9-2.9 0-1.6 1.3-2.9 2.9-2.9 1.6 0 2.9 1.3 2.9 2.9z"/><path class="o" d="m752.6 180.7c0 1.6-1.2 2.9-2.8 2.9-1.6 0-2.9-1.3-2.9-2.9 0-1.6 1.3-2.9 2.9-2.9 1.6 0 2.8 1.3 2.8 2.9z"/><path class="H" d="m509.3 266.4l-15.1-9.3h-73.7c-7.5 0-13.6-6.1-13.6-13.7v-11.9c0-7.6 6.1-13.8 13.6-13.8h75.2c7.5 0 13.6 6.2 13.6 13.8z"/><path class="o" d="m469.6 237.4c0 1.6 1.3 2.9 2.9 2.9 1.6 0 2.9-1.3 2.9-2.9 0-1.6-1.3-2.9-2.9-2.9-1.6 0-2.9 1.3-2.9 2.9z"/><path class="o" d="m452.3 237.4c0 1.6 1.3 2.9 2.9 2.9 1.6 0 2.9-1.3 2.9-2.9 0-1.6-1.3-2.9-2.9-2.9-1.6 0-2.9 1.3-2.9 2.9z"/><path class="o" d="m435.1 237.4c0 1.6 1.3 2.9 2.9 2.9 1.5 0 2.8-1.3 2.8-2.9 0-1.6-1.3-2.9-2.8-2.9-1.6 0-2.9 1.3-2.9 2.9z"/><path class="H" d="m189 131.7c2.5 7.4 4.3 15.1 5.3 22.9"/><path class="H" d="m210 124.7q-2.2 12.7-4.4 25.5"/><path class="H" d="m232.1 137c-3.3 3.3-6.1 7.1-8 11.4"/></svg>