<svg xmlns="http://www.w3.org/2000/svg" version="1.1" xmlns:xlink="http://www.w3.org/1999/xlink" xmlns:svgjs="http://svgjs.dev/svgjs" width="1500" height="1500" viewBox="0 0 1500 1500"><rect width="1500" height="1500" fill="#000000"></rect><g transform="matrix(0.6666666666666666,0,0,0.6666666666666666,249.39393939393938,531.6383922921952)"><svg viewBox="0 0 396 173" data-background-color="#ffffff" preserveAspectRatio="xMidYMid meet" height="655" width="1500" xmlns="http://www.w3.org/2000/svg" xmlns:xlink="http://www.w3.org/1999/xlink"><g id="tight-bounds" transform="matrix(1,0,0,1,0.2400000000000091,0.011201832328765704)"><svg viewBox="0 0 395.52 172.97759633534247" height="172.97759633534247" width="395.52"><g><svg viewBox="0 0 395.52 172.97759633534247" height="172.97759633534247" width="395.52"><g transform="matrix(1,0,0,1,0,106.90709405223744)"><svg viewBox="0 0 395.52 66.07050228310501" height="66.07050228310501" width="395.52"><g id="textblocktransform"><svg viewBox="0 0 395.52 66.07050228310501" height="66.07050228310501" width="395.52" id="textblock"><g><svg viewBox="0 0 395.52 66.07050228310501" height="66.07050228310501" width="395.52"><g transform="matrix(1,0,0,1,0,0)"><svg width="395.52" viewBox="1.5 -36.5 262.78 43.9" height="66.07050228310501" data-palette-color="#000000"><path d="M38.5 7.4L34.5 7.4Q33.6 7.4 32.9 7.15 32.2 6.9 31.65 6.3L31.65 6.3 25.35-0.6Q23.9-0.15 22.38 0.13 20.85 0.4 19.15 0.4L19.15 0.4Q15.2 0.4 11.98-0.95 8.75-2.3 6.4-4.75L6.4-4.75Q4.1-7.15 2.8-10.53 1.5-13.9 1.5-17.9L1.5-17.9Q1.5-21.95 2.8-25.3 4.1-28.65 6.4-31.1L6.4-31.1Q8.75-33.55 11.98-34.9 15.2-36.25 19.15-36.25L19.15-36.25Q23.1-36.25 26.4-34.9 29.7-33.55 32-31.1L32-31.1Q34.35-28.65 35.6-25.3 36.85-21.95 36.85-17.9L36.85-17.9Q36.85-13.05 34.85-8.97 32.85-4.9 29.3-2.55L29.3-2.55 38.5 7.4ZM19.15-3.85L19.15-3.85Q23.1-3.85 25.95-5.55 28.8-7.25 30.33-10.43 31.85-13.6 31.85-17.9L31.85-17.9Q31.85-22.2 30.33-25.38 28.8-28.55 25.95-30.3 23.1-32.05 19.15-32.05L19.15-32.05Q15.25-32.05 12.4-30.3 9.55-28.55 8-25.38 6.45-22.2 6.45-17.9L6.45-17.9Q6.45-13.6 8-10.45 9.55-7.3 12.4-5.58 15.25-3.85 19.15-3.85ZM50.75 0.4L50.75 0.4Q48 0.4 46.1-0.83 44.2-2.05 43.22-4.2 42.25-6.35 42.25-9.2L42.25-9.2 42.25-25.35 46.7-25.35 46.7-9.2Q46.7-6.3 48.02-4.73 49.35-3.15 52.05-3.15L52.05-3.15Q54-3.15 55.72-4.08 57.45-5 58.9-6.65L58.9-6.65 58.9-25.35 63.35-25.35 63.35 0 60.7 0Q59.7 0 59.5-0.95L59.5-0.95 59.15-3.65Q57.5-1.85 55.45-0.73 53.4 0.4 50.75 0.4ZM66.95 0L61.85 0 62.4-3.9 66.15-3.1Q66.55-3.05 66.75-2.78 66.95-2.5 66.95-2.05L66.95-2.05 66.95 0ZM38.65-25.35L43.75-25.35 43.2-21.45 39.45-22.25Q39.05-22.35 38.85-22.6 38.65-22.85 38.65-23.3L38.65-23.3 38.65-25.35ZM55.3-25.35L60.4-25.35 59.85-21.45 56.1-22.25Q55.7-22.35 55.5-22.6 55.3-22.85 55.3-23.3L55.3-23.3 55.3-25.35ZM77.05 0L72.59 0 72.59-25.35 77.05-25.35 77.05 0ZM74.09 0L69 0 69-2.05Q69-2.5 69.19-2.78 69.39-3.05 69.8-3.1L69.8-3.1 73.55-3.9 74.09 0ZM80.64 0L75.55 0 76.09-3.9 79.84-3.1Q80.25-3.05 80.44-2.78 80.64-2.5 80.64-2.05L80.64-2.05 80.64 0ZM69-25.35L74.09-25.35 73.55-21.45 69.8-22.25Q69.39-22.35 69.19-22.6 69-22.85 69-23.3L69-23.3 69-25.35ZM74.75-30.15L74.75-30.15Q73.5-30.15 72.55-31.1 71.59-32.05 71.59-33.3L71.59-33.3Q71.59-34.6 72.55-35.55 73.5-36.5 74.75-36.5L74.75-36.5Q76.05-36.5 77-35.55 77.94-34.6 77.94-33.3L77.94-33.3Q77.94-32.05 77-31.1 76.05-30.15 74.75-30.15ZM102.59 0L83.29 0 83.29-1.85Q83.29-2.2 83.47-2.63 83.64-3.05 83.94-3.45L83.94-3.45 97.69-21.85 84.04-21.85 84.04-25.35 102.89-25.35 102.89-23.45Q102.89-22.95 102.69-22.55 102.49-22.15 102.24-21.75L102.24-21.75 88.54-3.5 102.59-3.5 102.59 0ZM84.04-21.85L87.24-22.5 86.74-18.75Q86.69-18.4 86.47-18.18 86.24-17.95 85.69-17.95L85.69-17.95 84.04-17.95 84.04-21.85ZM102.59-3.5L99.39-2.85 99.89-6.6Q99.94-6.95 100.19-7.18 100.44-7.4 100.94-7.4L100.94-7.4 102.59-7.4 102.59-3.5ZM114.39 0L110.14 0 110.14-35.85 113.74-35.85Q114.39-35.85 114.72-35.73 115.04-35.6 115.39-35L115.39-35 127.79-12.95Q128.19-12.3 128.42-11.68 128.64-11.05 128.89-10.35L128.89-10.35Q129.14-11 129.42-11.68 129.69-12.35 130.04-13L130.04-13 142.19-35Q142.54-35.6 142.87-35.73 143.19-35.85 143.84-35.85L143.84-35.85 147.44-35.85 147.44 0 143.19 0 143.19-26.35Q143.19-26.85 143.22-27.45 143.24-28.05 143.29-28.7L143.29-28.7 130.99-6.3Q130.39-5.15 129.24-5.15L129.24-5.15 128.54-5.15Q127.44-5.15 126.79-6.3L126.79-6.3 114.24-28.75Q114.34-28.1 114.37-27.48 114.39-26.85 114.39-26.35L114.39-26.35 114.39 0ZM111.64 0L106.54 0 106.54-2.05Q106.54-2.5 106.74-2.78 106.94-3.05 107.34-3.1L107.34-3.1 111.09-3.9 111.64 0ZM118.49 0L113.39 0 113.94-3.9 117.69-3.1Q118.09-3.05 118.29-2.78 118.49-2.5 118.49-2.05L118.49-2.05 118.49 0ZM106.54-35.85L111.64-35.85 111.09-31.95 107.34-32.75Q106.94-32.85 106.74-33.1 106.54-33.35 106.54-33.8L106.54-33.8 106.54-35.85ZM144.19 0L139.09 0 139.09-2.05Q139.09-2.5 139.29-2.78 139.49-3.05 139.89-3.1L139.89-3.1 143.64-3.9 144.19 0ZM151.04 0L145.94 0 146.49-3.9 150.24-3.1Q150.64-3.05 150.84-2.78 151.04-2.5 151.04-2.05L151.04-2.05 151.04 0ZM145.94-35.85L151.04-35.85 151.04-33.8Q151.04-33.35 150.84-33.1 150.64-32.85 150.24-32.75L150.24-32.75 146.49-31.95 145.94-35.85ZM161.59 0.4L161.59 0.4Q159.59 0.4 157.99-0.38 156.39-1.15 155.44-2.65 154.49-4.15 154.49-6.35L154.49-6.35Q154.49-7.85 155.31-9.22 156.14-10.6 157.99-11.7L157.99-11.7Q159.84-12.75 162.81-13.45 165.79-14.15 170.09-14.25L170.09-14.25 170.09-16.2Q170.09-19.15 168.81-20.68 167.54-22.2 165.09-22.2L165.09-22.2Q163.79-22.2 162.36-21.53 160.94-20.85 159.74-20.18 158.54-19.5 157.84-19.5L157.84-19.5Q157.39-19.5 157.06-19.75 156.74-20 156.54-20.35L156.54-20.35 155.74-21.75Q157.84-23.8 160.26-24.8 162.69-25.8 165.64-25.8L165.64-25.8Q168.49-25.8 170.44-24.6 172.39-23.4 173.41-21.25 174.44-19.1 174.44-16.2L174.44-16.2 174.44 0 172.49 0Q171.84 0 171.44-0.2 171.04-0.4 170.89-1.05L170.89-1.05 170.39-3.4Q168.39-1.6 166.39-0.6 164.39 0.4 161.59 0.4ZM162.89-2.75L162.89-2.75Q165.14-2.75 166.84-3.65 168.54-4.55 170.09-6.15L170.09-6.15 170.09-11.4Q167.49-11.35 165.39-11.03 163.29-10.7 161.81-10.13 160.34-9.55 159.56-8.68 158.79-7.8 158.79-6.55L158.79-6.55Q158.79-4.55 159.96-3.65 161.14-2.75 162.89-2.75ZM178.04 0L172.94 0 173.49-3.9 177.24-3.1Q177.64-3.05 177.84-2.78 178.04-2.5 178.04-2.05L178.04-2.05 178.04 0ZM188.64 0.4L188.64 0.4Q186.84 0.4 184.61 0 182.39-0.4 180.79-1L180.79-1 180.79-4.7 182.99-4.2Q183.64-3.75 185.06-3.28 186.49-2.8 188.39-2.8L188.39-2.8Q191.24-2.8 192.59-3.98 193.94-5.15 193.94-6.85L193.94-6.85Q193.94-8.35 193.04-9.15 192.14-9.95 190.64-10.45 189.14-10.95 187.39-11.5L187.39-11.5Q185.59-12.1 184.09-12.9 182.59-13.7 181.69-14.98 180.79-16.25 180.79-18.2L180.79-18.2Q180.79-20.45 181.96-22.15 183.14-23.85 185.16-24.8 187.19-25.75 189.74-25.75L189.74-25.75Q191.19-25.75 192.96-25.4 194.74-25.05 196.84-24.35L196.84-24.35 196.84-21.35 194.19-21.7Q193.14-22 192.06-22.2 190.99-22.4 189.99-22.4L189.99-22.4Q188.54-22.4 187.41-21.95 186.29-21.5 185.64-20.7 184.99-19.9 184.99-18.85L184.99-18.85Q184.99-17.45 186.06-16.63 187.14-15.8 188.69-15.3 190.24-14.8 191.64-14.35L191.64-14.35Q193.29-13.85 194.76-13.05 196.24-12.25 197.19-10.95 198.14-9.65 198.14-7.55L198.14-7.55Q198.14-5.3 196.96-3.5 195.79-1.7 193.66-0.65 191.54 0.4 188.64 0.4ZM194.14-18.65L193.64-22.4 196.84-21.75 196.84-17.85 195.19-17.85Q194.69-17.85 194.44-18.07 194.19-18.3 194.14-18.65L194.14-18.65ZM183.49-6.8L183.99-3.05 180.79-3.7 180.79-7.6 182.44-7.6Q182.99-7.6 183.21-7.38 183.44-7.15 183.49-6.8L183.49-6.8ZM210.88 0.4L210.88 0.4Q207.88 0.4 206.26-1.28 204.63-2.95 204.63-6.1L204.63-6.1 204.63-21.6 201.58-21.6Q201.18-21.6 200.91-21.85 200.63-22.1 200.63-22.6L200.63-22.6 200.63-24.35 204.78-24.9 205.83-32.7Q205.93-33.55 206.83-33.55L206.83-33.55 209.08-33.55 209.08-24.85 216.33-24.85 216.33-21.6 209.08-21.6 209.08-6.4Q209.08-4.8 209.86-4.03 210.63-3.25 211.88-3.25L211.88-3.25Q212.43-3.25 213.08-3.55 213.73-3.85 214.28-4.15 214.83-4.45 215.08-4.45L215.08-4.45Q215.43-4.45 215.68-4.05L215.68-4.05 216.98-1.9Q215.83-0.85 214.21-0.23 212.58 0.4 210.88 0.4ZM231.93 0.35L231.93 0.35Q228.28 0.35 225.56-1.3 222.83-2.95 221.33-6 219.83-9.05 219.83-13.2L219.83-13.2Q219.83-16.75 221.28-19.6 222.73-22.45 225.41-24.1 228.08-25.75 231.68-25.75L231.68-25.75Q234.83-25.75 237.18-24.35 239.53-22.95 240.86-20.43 242.18-17.9 242.18-14.4L242.18-14.4Q242.18-13.35 241.96-13 241.73-12.65 241.08-12.65L241.08-12.65 224.23-12.65Q224.23-12.5 224.23-12.33 224.23-12.15 224.23-12L224.23-12Q224.48-7.8 226.58-5.48 228.68-3.15 232.28-3.15L232.28-3.15Q233.83-3.15 235.36-3.78 236.88-4.4 238.06-5 239.23-5.6 239.73-5.6L239.73-5.6Q240.28-5.6 240.58-5.2L240.58-5.2 241.83-3.55Q240.83-2.25 239.16-1.38 237.48-0.5 235.58-0.08 233.68 0.35 231.93 0.35ZM224.38-15.45L224.38-15.45 238.18-15.45Q238.18-18.55 236.48-20.5 234.78-22.45 231.78-22.45L231.78-22.45Q228.53-22.45 226.68-20.6 224.83-18.75 224.38-15.45ZM253.33 0L248.88 0 248.88-25.35 251.43-25.35Q252.18-25.35 252.48-25.08 252.78-24.8 252.83-24.1L252.83-24.1 253.13-20.15Q254.43-22.8 256.33-24.3 258.23-25.8 260.83-25.8L260.83-25.8Q261.88-25.8 262.73-25.55 263.58-25.3 264.28-24.9L264.28-24.9 263.73-21.55Q263.68-21.25 263.45-21.1 263.23-20.95 262.93-20.95L262.93-20.95Q262.58-20.95 261.58-21.18 260.58-21.4 259.83-21.4L259.83-21.4Q257.53-21.4 255.95-20.05 254.38-18.7 253.33-16.15L253.33-16.15 253.33 0ZM256.93 0L251.83 0 252.38-3.9 256.13-3.1Q256.53-3.05 256.73-2.78 256.93-2.5 256.93-2.05L256.93-2.05 256.93 0ZM250.38 0L245.28 0 245.28-2.05Q245.28-2.5 245.48-2.78 245.68-3.05 246.08-3.1L246.08-3.1 249.83-3.9 250.38 0ZM245.28-25.35L250.38-25.35 249.83-21.45 246.08-22.25Q245.68-22.35 245.48-22.6 245.28-22.85 245.28-23.3L245.28-23.3 245.28-25.35Z" opacity="1" transform="matrix(1,0,0,1,0,0)" fill="#ffffff" class="wordmark-text-0" data-fill-palette-color="primary" id="text-0"></path></svg></g></svg></g></svg></g></svg></g><g transform="matrix(1,0,0,1,152.1052829223744,0)"><svg viewBox="0 0 91.30943415525115 91.30943415525114" height="91.30943415525114" width="91.30943415525115"><g><svg></svg></g><g id="icon-0"><svg viewBox="0 0 91.30943415525115 91.30943415525114" height="91.30943415525114" width="91.30943415525115"><g><path transform="scale(0.91309,0.91309)" d="M30 100c-16.569 0-30-13.431-30-30v-40c0-16.569 13.431-30 30-30h40c16.569 0 30 13.431 30 30v40c0 16.569-13.431 30-30 30z" fill="#ffffff" fill-rule="nonzero" stroke="none" stroke-width="1" stroke-linecap="butt" stroke-linejoin="miter" stroke-miterlimit="10" stroke-dasharray="" stroke-dashoffset="0" font-family="none" font-weight="none" font-size="none" text-anchor="none" style="mix-blend-mode: normal" data-fill-palette-color="accent"></path></g><g transform="matrix(1,0,0,1,24.180073204444664,18.26188683105023)"><svg viewBox="0 0 42.949287746361826 54.78566049315068" height="54.78566049315068" width="42.949287746361826"><g><svg xmlns="http://www.w3.org/2000/svg" xmlns:xlink="http://www.w3.org/1999/xlink" version="1.1" x="0" y="0" viewBox="2.806 4.049998320893422 95 121.18100252524425" enable-background="new 0 0 100 128.814" xml:space="preserve" height="54.78566049315068" width="42.949287746361826" class="icon-dxe-0" data-fill-palette-color="quaternary" id="dxe-0"><g fill="#ffffff" data-fill-palette-color="quaternary"><path fill="none" d="M50.302 77.047C61.091 77.047 69.973 65.137 71.122 49.826 71.264 48.838 71.345 47.826 71.358 46.797L67.988 50.669C69.845 46.556 63.231 36.085 63.231 36.085 52.081 44.15 35.507 36.085 35.507 36.085 30.506 38.059 32.874 52.127 32.874 52.127 31.625 51.257 30.48 50.801 29.546 50.568 30.925 65.519 39.692 77.047 50.302 77.047"></path><path fill="none" d="M69.28 77.217C69.283 77.208 69.283 77.199 69.286 77.196 69.286 77.2 69.28 77.211 69.28 77.217"></path><path d="M26.592 49.701C26.608 49.93 26.628 50.152 26.649 50.377 28.163 67.495 38.174 80.715 50.303 80.715 62.593 80.715 72.709 67.149 74.018 49.709A26.9 26.9 0 0 0 74.018 42.028C72.259 29.906 62.312 20.617 50.303 20.617S28.345 29.912 26.593 42.038A26.6 26.6 0 0 0 26.318 45.867C26.318 46.398 26.339 46.925 26.368 47.446 26.41 48.206 26.485 48.959 26.592 49.701M35.508 36.086S52.082 44.151 63.232 36.086C63.232 36.086 69.846 46.557 67.989 50.67L71.359 46.798A24 24 0 0 1 71.123 49.827C69.974 65.138 61.092 77.048 50.303 77.048 39.693 77.048 30.926 65.52 29.548 50.569 30.482 50.802 31.627 51.258 32.876 52.128 32.875 52.127 30.507 38.06 35.508 36.086" fill="#000000" data-fill-palette-color="quaternary"></path><path d="M72.285 77.144C71.315 76.964 70.336 76.825 69.337 76.736H69.334C69.334 76.777 69.329 76.822 69.324 76.865 69.318 76.975 69.304 77.094 69.28 77.218 69.28 77.212 69.286 77.2 69.286 77.197 69.283 77.201 69.283 77.21 69.28 77.218 69.16 77.958 68.808 78.914 68.282 80.026 65.527 85.854 57.992 96.022 53.328 102.089L52.442 89.46A7.6 7.6 0 0 0 55.403 86.674C55.991 85.713 56.353 84.634 56.353 83.543 56.353 83.543 53.078 84.993 49.735 84.993 46.394 84.993 43.119 83.543 43.119 83.543 43.119 84.553 43.431 85.549 43.939 86.45 44.645 87.715 45.746 88.8 47.029 89.46L46.122 102.422C41.732 96.181 34.281 85.192 31.976 79.39 31.649 78.566 31.429 77.852 31.333 77.264V77.261A4 4 0 0 1 31.289 76.874V76.866C31.285 76.823 31.278 76.778 31.277 76.737H31.275A35 35 0 0 0 29.79 76.909C14.542 79.031 2.806 92.123 2.806 107.957 2.806 125.271 16.844 125.231 34.16 125.231H66.448C83.767 125.231 97.806 125.271 97.806 107.957 97.806 92.632 86.812 79.876 72.285 77.144" fill="#000000" data-fill-palette-color="quaternary"></path></g><g fill="#ffffff" data-fill-palette-color="quaternary"><path fill="#000000" d="M51.735 36.82A0.8 0.8 0 0 1 50.601 36.82L31.325 25.49 30.683 33.692 47.392 41.165C49.194 42.966 53.141 42.966 54.942 41.165L70.565 34.321 69.764 26.28z" data-fill-palette-color="quaternary"></path><path fill="#000000" d="M83.591 17.497L51.942 4.33A0.95 0.95 0 0 0 50.595 4.33L18.947 17.497A0.95 0.95 0 0 0 18.947 18.845L21.305 20.209 21.156 22.294A1.713 1.713 0 0 0 20.919 25.614L19.538 44.949 21.444 50.666 23.35 44.949 21.968 25.614A1.72 1.72 0 0 0 23.158 23.982 1.71 1.71 0 0 0 21.731 22.294L21.593 20.376 24.897 22.289 25.03 22.366 50.594 37.158A0.95 0.95 0 0 0 51.941 37.158L76.213 23.11 77.639 22.288 83.589 18.845A0.95 0.95 0 0 0 83.591 17.497" data-fill-palette-color="quaternary"></path></g></svg></g></svg></g></svg></g></svg></g><g></g></svg></g><defs></defs></svg><rect width="395.52" height="172.97759633534247" fill="none" stroke="none" visibility="hidden"></rect></g></svg></g></svg>